<svg viewBox="10.840000000000003 16.924157303370777 226.28500000000005 205.79775280898878" xmlns="http://www.w3.org/2000/svg" xmlns:xlink="http://www.w3.org/1999/xlink" xmlns:blush="http://design.blush" overflow="visible" width="1000px" height="909.4626369798649px"><g id="Master/Background/Abstract 5" stroke="none" stroke-width="1" fill="none" fill-rule="evenodd"><path d="M227.287,122.944 C227.287,177.423 183.123,221.589 128.643,221.589 C74.164,221.589 30,177.423 30,122.944 C30,68.465 74.164,24.3 128.643,24.3 C183.123,24.3 227.287,68.465 227.287,122.944" id="Background" fill="#C2F5FF"/><g id="Decoration" transform="translate(6.000000, 109.894232) scale(1 1)" blush:width="24" blush:height="24" blush:component="Decoration"><g id="Decoration/Flower 1" stroke="none" stroke-width="1" fill="none" fill-rule="evenodd"><path d="M16.2877798,11.7530543 C17.7657798,10.1460543 16.9497798,8.63905427 15.3437798,7.84705427 C15.0917798,7.89805427 14.7947798,7.95605427 14.5097798,8.01205427 C14.2277798,7.87305427 13.9607798,7.74105427 13.7017798,7.61305427 C12.5577798,5.13005427 10.1557798,5.79005427 9.23377979,7.72705427 C8.40677979,8.12805427 7.27177979,7.70705427 6.56177979,8.57705427 C6.14177979,9.08505427 5.97877979,9.66705427 6.06077979,10.3440543 C6.13677979,10.9720543 6.64577979,11.4150543 6.70777979,12.0550543 C6.65177979,12.3810543 6.42877979,12.6460543 6.27077979,12.9400543 C5.43677979,14.4960543 6.64577979,16.3420543 8.30877979,16.0940543 C8.42777979,16.0760543 8.54677979,16.0610543 8.58277979,16.0560543 C9.48777979,16.3060543 9.79577979,17.0430543 10.2377798,17.6830543 C10.5947798,17.8030543 10.9797798,17.9000543 11.2747798,18.1440543 C11.8827798,17.9800543 12.4407798,17.8280543 12.9627798,17.6870543 C13.4567798,17.2630543 13.3887798,16.5710543 13.8737798,16.1090543 C14.2467798,16.1080543 14.6657798,16.1120543 15.0857798,16.1050543 C16.2227798,16.0810543 16.8087798,15.5090543 16.8937798,14.3780543 C16.9417798,13.7340543 16.9767798,13.1170543 16.5227798,12.5610543 C16.3657798,12.3670543 16.3667798,12.0450543 16.2877798,11.7530543" id="Fill-14" fill="#4DDEFF"/></g></g><g id="Decoration" transform="translate(220.000000, 171.000000) scale(1 1)" blush:width="24" blush:height="24" blush:component="Decoration"><g id="Decoration/Triangle 1" stroke="none" stroke-width="1" fill="none" fill-rule="evenodd"><path d="M14.0345279,6.22635976 L7.23052925,9.43212839 C5.79593302,10.1071497 5.60720927,12.1058291 6.87993992,13.0518609 L12.9584686,17.5644906 C14.2612881,18.5328879 16.0824089,17.6753832 16.2342941,16.0607129 L16.9602686,8.3425664 C17.1114648,6.73522076 15.4972511,5.53707437 14.0345279,6.22635976 Z M14.8614961,7.9812739 C14.9386173,7.94493177 15.0418973,8.02159117 15.0287949,8.16088083 L14.3028201,15.8790322 C14.2904423,16.0106181 14.1860861,16.0597559 14.115387,16.0072046 L8.03674116,11.4944879 C7.9364746,11.4199587 7.95386308,11.2358059 8.05689694,11.1873253 L14.8614961,7.9812739 Z" id="Triangle" fill="#FED21C" fill-rule="nonzero"/></g></g><g id="Decoration" transform="translate(174.553800, 33.000000) scale(1 1)" blush:width="24" blush:height="24" blush:component="Decoration"><g id="Decoration/Zig Zag 1" stroke="none" stroke-width="1" fill="none" fill-rule="evenodd"><path d="M18.8131096,9.26691711 C19.1765895,8.92968784 19.7260561,8.91312527 20.107618,9.21086545 L20.1993057,9.29184479 L24.7060568,13.7852414 C25.0971601,14.1751858 25.0980996,14.8083501 24.7081552,15.1994534 C24.3482065,15.5604719 23.7810173,15.589043 23.3882739,15.2846006 L23.2939432,15.2015518 L19.468,11.387 L15.0655369,15.4720429 C14.7137138,15.7984571 14.185697,15.8254688 13.8047167,15.5532008 L13.7047014,15.4715258 L9.545,11.606 L4.90107231,15.746517 C4.52776944,16.0792397 3.97256488,16.0817252 3.59733952,15.7698569 L3.50749216,15.68535 L-0.728213787,11.184731 C-1.10672216,10.7825496 -1.08753141,10.1496755 -0.685350043,9.77116715 C-0.314105702,9.4217748 0.253705212,9.41125035 0.636571114,9.72802515 L0.728213787,9.81403089 L4.296,13.606 L8.8942269,9.50833238 C9.2472505,9.19368445 9.76657324,9.17254134 10.1417697,9.44168569 L10.2402894,9.52228349 L14.385,13.374 L18.8131096,9.26691711 Z" id="Stroke-35" fill="#FF67FF" fill-rule="nonzero"/></g></g><g id="Decoration" transform="translate(146.553800, 20.000000) scale(1 1)" blush:width="24" blush:height="24" blush:component="Decoration"><g id="Decoration/Zig Zag 1" stroke="none" stroke-width="1" fill="none" fill-rule="evenodd"><path d="M18.8131096,9.26691711 C19.1765895,8.92968784 19.7260561,8.91312527 20.107618,9.21086545 L20.1993057,9.29184479 L24.7060568,13.7852414 C25.0971601,14.1751858 25.0980996,14.8083501 24.7081552,15.1994534 C24.3482065,15.5604719 23.7810173,15.589043 23.3882739,15.2846006 L23.2939432,15.2015518 L19.468,11.387 L15.0655369,15.4720429 C14.7137138,15.7984571 14.185697,15.8254688 13.8047167,15.5532008 L13.7047014,15.4715258 L9.545,11.606 L4.90107231,15.746517 C4.52776944,16.0792397 3.97256488,16.0817252 3.59733952,15.7698569 L3.50749216,15.68535 L-0.728213787,11.184731 C-1.10672216,10.7825496 -1.08753141,10.1496755 -0.685350043,9.77116715 C-0.314105702,9.4217748 0.253705212,9.41125035 0.636571114,9.72802515 L0.728213787,9.81403089 L4.296,13.606 L8.8942269,9.50833238 C9.2472505,9.19368445 9.76657324,9.17254134 10.1417697,9.44168569 L10.2402894,9.52228349 L14.385,13.374 L18.8131096,9.26691711 Z" id="Stroke-35" fill="#FF67FF" fill-rule="nonzero"/></g></g><g id="Decoration" transform="translate(195.553800, 50.000000) scale(1 1)" blush:width="24" blush:height="24" blush:component="Decoration"><g id="Decoration/Zig Zag 3" stroke="none" stroke-width="1" fill="none" fill-rule="evenodd"><path d="M3.88855377,9.18531247 C4.10943803,8.97154288 4.44385451,8.94201943 4.69613648,9.10038635 L4.78651,9.16858842 L9.6662701,13.5508729 L14.2454009,9.42056973 C14.4645195,9.22288714 14.7839864,9.19768096 15.0287935,9.34687338 L15.1167547,9.41099923 L20.1902701,13.7898729 L24.1648498,9.6929992 C24.3927508,9.45806519 24.7532226,9.42944053 25.0133345,9.61066474 L25.0960019,9.67884985 C25.330936,9.90675085 25.3595606,10.2672227 25.1783364,10.5273346 L25.1101513,10.610002 L20.7031513,15.153002 C20.4872653,15.3755502 20.1504103,15.4141383 19.8927611,15.2598981 L19.8002464,15.193002 L14.6952701,10.7878729 L10.1086002,14.9264315 C9.88620707,15.1270682 9.56107405,15.1496958 9.31549719,14.9941111 L9.22749111,14.9274128 L4.3632701,10.5578729 L0.116447333,14.6686887 C-0.118753791,14.896314 -0.479949373,14.9135493 -0.734212987,14.7242072 L-0.814687567,14.6534474 C-1.04231289,14.4182462 -1.05954816,14.0570507 -0.870206047,13.8027871 L-0.799446226,13.7223125 L3.88855377,9.18531247 Z" id="Stroke-20" fill="#26B6E3" fill-rule="nonzero"/></g></g><g id="Decoration" transform="translate(177.553800, 12.000000) scale(1 1)" blush:width="24" blush:height="24" blush:component="Decoration"><g id="Decoration/Triangle 1" stroke="none" stroke-width="1" fill="none" fill-rule="evenodd"><path d="M14.0345279,6.22635976 L7.23052925,9.43212839 C5.79593302,10.1071497 5.60720927,12.1058291 6.87993992,13.0518609 L12.9584686,17.5644906 C14.2612881,18.5328879 16.0824089,17.6753832 16.2342941,16.0607129 L16.9602686,8.3425664 C17.1114648,6.73522076 15.4972511,5.53707437 14.0345279,6.22635976 Z M14.8614961,7.9812739 C14.9386173,7.94493177 15.0418973,8.02159117 15.0287949,8.16088083 L14.3028201,15.8790322 C14.2904423,16.0106181 14.1860861,16.0597559 14.115387,16.0072046 L8.03674116,11.4944879 C7.9364746,11.4199587 7.95386308,11.2358059 8.05689694,11.1873253 L14.8614961,7.9812739 Z" id="Triangle" fill="#FED21C" fill-rule="nonzero"/></g></g><g id="Decoration" transform="translate(104.553800, 30.000000) scale(1 1)" blush:width="24" blush:height="24" blush:component="Decoration"><g id="Decoration/Zig Zag 2" stroke="none" stroke-width="1" fill="none" fill-rule="evenodd"><path d="M18.8131096,9.26691711 C19.1765895,8.92968784 19.7260561,8.91312527 20.107618,9.21086545 L20.1993057,9.29184479 L24.7060568,13.7852414 C25.0971601,14.1751858 25.0980996,14.8083501 24.7081552,15.1994534 C24.3482065,15.5604719 23.7810173,15.589043 23.3882739,15.2846006 L23.2939432,15.2015518 L19.468,11.387 L15.0655369,15.4720429 C14.7137138,15.7984571 14.185697,15.8254688 13.8047167,15.5532008 L13.7047014,15.4715258 L9.545,11.606 L4.90107231,15.746517 C4.52776944,16.0792397 3.97256488,16.0817252 3.59733952,15.7698569 L3.50749216,15.68535 L-0.728213787,11.184731 C-1.10672216,10.7825496 -1.08753141,10.1496755 -0.685350043,9.77116715 C-0.314105702,9.4217748 0.253705212,9.41125035 0.636571114,9.72802515 L0.728213787,9.81403089 L4.296,13.606 L8.8942269,9.50833238 C9.2472505,9.19368445 9.76657324,9.17254134 10.1417697,9.44168569 L10.2402894,9.52228349 L14.385,13.374 L18.8131096,9.26691711 Z" id="Stroke-35" fill="#FED21C" fill-rule="nonzero"/></g></g><g id="Decoration" transform="translate(90.553800, 103.000000) scale(1 1)" blush:width="24" blush:height="24" blush:component="Decoration"><g id="Decoration/Sparkle 2" stroke="none" stroke-width="1" fill="none" fill-rule="evenodd"><g id="Sparkle-2" transform="translate(7.000000, 0.000000)" fill="#FED21C"><path d="M8.91355221,19.3673 C8.93155221,19.7213 8.79855221,19.8933 8.60255221,20.0293 C8.32555221,20.2223 8.06655221,20.5163 7.76055221,20.5843 C6.35155221,20.8883 5.91255221,22.0553 5.35355221,23.1383 C4.82255221,24.1733 4.08955221,24.2673 3.58555221,23.2293 C2.91455221,21.8473 2.06655221,20.8253 0.594552212,20.2373 C-0.205447788,19.9193 -0.198447788,18.9173 0.617552212,18.5963 C2.09755221,18.0133 2.96055221,17.0163 3.60255221,15.6023 C4.05355221,14.6073 4.87655221,14.6923 5.33055221,15.6873 C5.86255221,16.8503 6.39855221,17.9253 7.79255221,18.3053 C8.30255221,18.4453 8.79655221,18.8373 8.91355221,19.3673" id="Fill-4"/><path d="M6.04685221,1.59 C6.04685221,2.468 5.33585221,3.179 4.45785221,3.179 C3.57985221,3.179 2.86785221,2.468 2.86785221,1.59 C2.86785221,0.712 3.57985221,0 4.45785221,0 C5.33585221,0 6.04685221,0.712 6.04685221,1.59" id="Fill-6"/><path d="M6.04685221,6.3907 C6.04685221,7.2677 5.33585221,7.9797 4.45785221,7.9797 C3.57985221,7.9797 2.86785221,7.2677 2.86785221,6.3907 C2.86785221,5.5127 3.57985221,4.8007 4.45785221,4.8007 C5.33585221,4.8007 6.04685221,5.5127 6.04685221,6.3907" id="Fill-8"/><path d="M6.04685221,10.8907 C6.04685221,11.7687 5.33585221,12.4807 4.45785221,12.4807 C3.57985221,12.4807 2.86785221,11.7687 2.86785221,10.8907 C2.86785221,10.0127 3.57985221,9.3017 4.45785221,9.3017 C5.33585221,9.3017 6.04685221,10.0127 6.04685221,10.8907" id="Fill-10"/></g></g></g><g id="Decoration" transform="translate(173.553800, 97.000000) scale(1 1)" blush:width="24" blush:height="24" blush:component="Decoration"><g id="Decoration/Zig Zag 1" stroke="none" stroke-width="1" fill="none" fill-rule="evenodd"><path d="M18.8131096,9.26691711 C19.1765895,8.92968784 19.7260561,8.91312527 20.107618,9.21086545 L20.1993057,9.29184479 L24.7060568,13.7852414 C25.0971601,14.1751858 25.0980996,14.8083501 24.7081552,15.1994534 C24.3482065,15.5604719 23.7810173,15.589043 23.3882739,15.2846006 L23.2939432,15.2015518 L19.468,11.387 L15.0655369,15.4720429 C14.7137138,15.7984571 14.185697,15.8254688 13.8047167,15.5532008 L13.7047014,15.4715258 L9.545,11.606 L4.90107231,15.746517 C4.52776944,16.0792397 3.97256488,16.0817252 3.59733952,15.7698569 L3.50749216,15.68535 L-0.728213787,11.184731 C-1.10672216,10.7825496 -1.08753141,10.1496755 -0.685350043,9.77116715 C-0.314105702,9.4217748 0.253705212,9.41125035 0.636571114,9.72802515 L0.728213787,9.81403089 L4.296,13.606 L8.8942269,9.50833238 C9.2472505,9.19368445 9.76657324,9.17254134 10.1417697,9.44168569 L10.2402894,9.52228349 L14.385,13.374 L18.8131096,9.26691711 Z" id="Stroke-35" fill="#FF67FF" fill-rule="nonzero"/></g></g><g id="Decoration" transform="translate(29.553800, 42.000000) scale(1 1)" blush:width="24" blush:height="24" blush:component="Decoration"><g id="Decoration/Triangle 1" stroke="none" stroke-width="1" fill="none" fill-rule="evenodd"><path d="M14.0345279,6.22635976 L7.23052925,9.43212839 C5.79593302,10.1071497 5.60720927,12.1058291 6.87993992,13.0518609 L12.9584686,17.5644906 C14.2612881,18.5328879 16.0824089,17.6753832 16.2342941,16.0607129 L16.9602686,8.3425664 C17.1114648,6.73522076 15.4972511,5.53707437 14.0345279,6.22635976 Z M14.8614961,7.9812739 C14.9386173,7.94493177 15.0418973,8.02159117 15.0287949,8.16088083 L14.3028201,15.8790322 C14.2904423,16.0106181 14.1860861,16.0597559 14.115387,16.0072046 L8.03674116,11.4944879 C7.9364746,11.4199587 7.95386308,11.2358059 8.05689694,11.1873253 L14.8614961,7.9812739 Z" id="Triangle" fill="#FED21C" fill-rule="nonzero"/></g></g><g id="Medium Decoration" transform="translate(162.553800, 171.000000) scale(1 1)" blush:width="62" blush:height="53" blush:component="Medium Decoration"><g id="Medium Decoration/Circle 2" stroke="none" stroke-width="1" fill="none" fill-rule="evenodd"><path d="M43.9376,26.7227 C44.0736,33.8847 38.3786,39.8007 31.2166,39.9377 C24.0556,40.0747 18.1386,34.3787 18.0026,27.2167 C17.8656,20.0547 23.5616,14.1387 30.7226,14.0017 C37.8846,13.8667 43.8006,19.5617 43.9376,26.7227" id="Fill-1" fill="#AD5CEE"/></g></g><g id="Medium Decoration" transform="translate(39.000000, 16.000000) scale(1 1)" blush:width="62" blush:height="53" blush:component="Medium Decoration"><g id="Medium Decoration/Circle 2" stroke="none" stroke-width="1" fill="none" fill-rule="evenodd"><path d="M43.9376,26.7227 C44.0736,33.8847 38.3786,39.8007 31.2166,39.9377 C24.0556,40.0747 18.1386,34.3787 18.0026,27.2167 C17.8656,20.0547 23.5616,14.1387 30.7226,14.0017 C37.8846,13.8667 43.8006,19.5617 43.9376,26.7227" id="Fill-1" fill="#AD5CEE"/></g></g></g></svg>