<svg viewBox="39.53 49.56 136.88 132.16" xmlns="http://www.w3.org/2000/svg" xmlns:xlink="http://www.w3.org/1999/xlink" xmlns:blush="http://design.blush" overflow="visible" width="1000px" height="965.5172413793103px"><defs><path d="M0.568,9.468 C0.568,9.468 24.313,30.647 28.424,33.543 L28.424,33.543 C32.534,36.439 38.378,42.368 38.378,42.368 L38.378,42.368 C48.549,37.401 37.261,23.368 35.057,20.783 L35.057,20.783 C34.829,20.516 34.699,20.37 34.699,20.37 L34.699,20.37 L26.708,18.606 C25.263,17.732 5.135,0.186 5.135,0.186 L5.135,0.186" id="mastercharactersitting-on-floor-path-7"/><path d="M0.568,9.468 C0.568,9.468 24.313,30.647 28.424,33.543 L28.424,33.543 C32.534,36.439 38.378,42.368 38.378,42.368 L38.378,42.368 C48.549,37.401 37.261,23.368 35.057,20.783 L35.057,20.783 C34.829,20.516 34.699,20.37 34.699,20.37 L34.699,20.37 L26.708,18.606 C25.263,17.732 5.135,0.186 5.135,0.186 L5.135,0.186" id="mastercharactersitting-on-floor-path-9"/><path d="M0.568,9.468 C0.568,9.468 24.313,30.647 28.424,33.543 L28.424,33.543 C32.534,36.439 38.378,42.368 38.378,42.368 L38.378,42.368 C48.549,37.401 37.261,23.368 35.057,20.783 L35.057,20.783 C34.829,20.516 34.699,20.37 34.699,20.37 L34.699,20.37 L26.708,18.606 C25.263,17.732 5.135,0.186 5.135,0.186 L5.135,0.186" id="mastercharactersitting-on-floor-path-11"/><path d="M0.568,9.468 C0.568,9.468 24.313,30.647 28.424,33.543 L28.424,33.543 C32.534,36.439 38.378,42.368 38.378,42.368 L38.378,42.368 C48.549,37.401 37.261,23.368 35.057,20.783 L35.057,20.783 C34.829,20.516 34.699,20.37 34.699,20.37 L34.699,20.37 L26.708,18.606 C25.263,17.732 5.135,0.186 5.135,0.186 L5.135,0.186" id="mastercharactersitting-on-floor-path-13"/><path d="M0.568,9.468 C0.568,9.468 24.313,30.647 28.424,33.543 L28.424,33.543 C32.534,36.439 38.378,42.368 38.378,42.368 L38.378,42.368 C48.549,37.401 37.261,23.368 35.057,20.783 L35.057,20.783 C34.829,20.516 34.699,20.37 34.699,20.37 L34.699,20.37 L26.708,18.606 C25.263,17.732 5.135,0.186 5.135,0.186 L5.135,0.186" id="mastercharactersitting-on-floor-path-15"/><path d="M13.77,22.806 C12.137,26.38 0.774,35.048 0.774,35.048 L0.774,35.048 L8.358,49.393 C8.358,49.393 19.458,34.748 24.473,27.352 L24.473,27.352 C29.488,19.953 30.662,3.155 30.662,3.155 L30.662,3.155 L24.643,0.055 C24.643,0.055 15.403,19.231 13.77,22.806" id="mastercharactersitting-on-floor-path-17"/><path d="M13.77,22.806 C12.137,26.38 0.774,35.048 0.774,35.048 L0.774,35.048 L8.358,49.393 C8.358,49.393 19.458,34.748 24.473,27.352 L24.473,27.352 C29.488,19.953 30.662,3.155 30.662,3.155 L30.662,3.155 L24.643,0.055 C24.643,0.055 15.403,19.231 13.77,22.806" id="mastercharactersitting-on-floor-path-19"/><path d="M13.77,22.806 C12.137,26.38 0.774,35.048 0.774,35.048 L0.774,35.048 L8.358,49.393 C8.358,49.393 19.458,34.748 24.473,27.352 L24.473,27.352 C29.488,19.953 30.662,3.155 30.662,3.155 L30.662,3.155 L24.643,0.055 C24.643,0.055 15.403,19.231 13.77,22.806" id="mastercharactersitting-on-floor-path-21"/><path d="M13.77,22.806 C12.137,26.38 0.774,35.048 0.774,35.048 L0.774,35.048 L8.358,49.393 C8.358,49.393 19.458,34.748 24.473,27.352 L24.473,27.352 C29.488,19.953 30.662,3.155 30.662,3.155 L30.662,3.155 L24.643,0.055 C24.643,0.055 15.403,19.231 13.77,22.806" id="mastercharactersitting-on-floor-path-23"/><path d="M13.77,22.806 C12.137,26.38 0.774,35.048 0.774,35.048 L0.774,35.048 L8.358,49.393 C8.358,49.393 19.458,34.748 24.473,27.352 L24.473,27.352 C29.488,19.953 30.662,3.155 30.662,3.155 L30.662,3.155 L24.643,0.055 C24.643,0.055 15.403,19.231 13.77,22.806" id="mastercharactersitting-on-floor-path-25"/><polygon id="mastercharactersitting-on-floor-path-1" points="0.942590232 0.626161304 20.361 0.626161304 20.361 23.9999004 0.942590232 23.9999004"/><polygon id="mastercharactersitting-on-floor-path-3" points="0.177621134 0.820415608 6.429 0.820415608 6.429 3.2078 0.177621134 3.2078"/><polygon id="mastercharactersitting-on-floor-path-5" points="0 0.681114006 15.1078446 0.681114006 15.1078446 16.6209 0 16.6209"/></defs><g id="Master/Character/Sitting on Floor" stroke="none" stroke-width="1" fill="none" fill-rule="evenodd" blush:has-customizable-skin="true"><g id="Lower Sitting on Floor" transform="translate(55.000000, 127.000000) scale(1 1)" blush:width="123" blush:height="56" blush:component="Lower Sitting on Floor"><defs><polygon id="lower-sitting-on-floorleggings-2-path-1" points="0.942590232 0.626161304 20.361 0.626161304 20.361 23.9999004 0.942590232 23.9999004"/></defs><g id="Lower Sitting on Floor/Leggings 2" stroke="none" stroke-width="1" fill="none" fill-rule="evenodd"><g id="Lower"><polygon id="Fill-1" fill="#604891" points="94.1024 37.0359 92.7664 35.5399 90.0044 32.4499 83.8664 37.6039 87.0504 40.3389 88.5374 41.6159 92.8704 45.3369 97.8104 41.1879" blush:skin="500"/><g id="Group-29" transform="translate(0.000000, 0.982500)"><g id="Group-4" transform="translate(1.000000, 0.000000)" fill="#322A7C"><path d="M88.1277,41.9663 C88.1277,41.9663 74.0877,31.7493 69.7307,28.0223 C67.0797,25.7553 64.6097,23.2673 62.1417,20.8053 C61.0807,19.7473 57.1937,14.5813 55.6507,14.9973 C54.4567,15.3173 50.7767,23.1473 46.2327,27.6953 C42.6657,31.2643 39.3707,35.0973 35.6767,38.5343 C33.2707,40.7733 30.6607,42.7913 27.7607,44.3413 C12.6687,52.4083 5.33565934,45.115506 0.737659342,39.748506 C-3.86034066,34.381506 16.2487,18.5073 16.2487,18.5073 C16.2487,18.5073 53.7767,0.3853 55.4287,0.0743 C57.5537,-0.3277 60.7237,1.4413 64.2867,4.3203 C74.9947,12.9733 94.8837,35.8093 94.8837,35.8093 L88.1277,41.9663 Z" id="Fill-2"/></g><path d="M113.9774,48.9724 L89.5804,48.4034 C89.4064,48.0704 89.3184,47.5994 89.2914,47.0404 C89.1864,44.9734 89.9204,41.6954 90.2914,39.6264 C90.3374,39.3844 90.3764,39.1594 90.4064,38.9544 C90.4594,38.6094 90.4944,38.3214 90.4994,38.1084 C90.5394,36.4134 92.0324,36.7394 92.0324,36.7394 C94.4444,39.2184 97.3244,35.6534 98.9294,36.8814 C98.9294,36.8814 98.9944,36.9314 99.1414,37.0514 C99.2754,37.1624 99.4794,37.3354 99.7634,37.5844 C100.1704,37.9424 100.7424,38.4604 101.5164,39.1894 C103.4124,40.9774 106.6794,42.2034 109.4564,43.4424 C109.8114,43.6004 110.1394,43.7574 110.4434,43.9124 C110.6754,44.0314 110.8934,44.1494 111.0984,44.2674 C113.3614,45.5584 114.0634,46.7574 114.2094,47.6214 C114.3484,48.4514 113.9774,48.9724 113.9774,48.9724" id="Fill-5" fill="#432C82"/><path d="M113.9774,48.9724 L89.5804,48.4034 C89.4064,48.0694 89.3194,47.5994 89.2914,47.0404 L114.2094,47.6214 C114.3484,48.4504 113.9774,48.9724 113.9774,48.9724" id="Fill-7" fill="#FF67FF"/><path d="M92.0697,48.4616 L91.3447,48.4436 C92.0877,47.6346 92.7937,46.3826 92.7477,44.5676 C92.6857,42.1546 91.2777,40.4966 90.2927,39.6266 C90.3377,39.3846 90.3757,39.1586 90.4067,38.9546 C91.4707,39.8086 93.2537,41.6626 93.3287,44.5536 C93.3727,46.2856 92.7747,47.5646 92.0697,48.4616" id="Fill-9" fill="#FF67FF"/><polygon id="Fill-11" fill="#604891" points="98.8392 39.6794 94.9522 38.2424 91.9452 45.6744 96.0402 46.5974 97.9522 47.0294 103.5232 48.2844 105.9432 42.3034 100.7212 40.3734" blush:skin="500"/><g id="Group-15" transform="translate(101.000000, 30.000000)"><mask id="lower-sitting-on-floorleggings-2-mask-2" fill="#fff"><use xlink:href="#lower-sitting-on-floorleggings-2-path-1"/></mask><g id="Clip-14"/><path d="M20.3612,1.3659 L11.2082,23.9879 C10.8342,24.0329 10.3632,23.9489 9.8312,23.7769 C7.8602,23.1439 5.0532,21.2999 3.2492,20.2199 C3.0382,20.0939 2.8412,19.9769 2.6612,19.8769 C2.3562,19.7039 2.0992,19.5699 1.9022,19.4899 C0.3312,18.8539 1.1622,17.5729 1.1622,17.5729 C4.3342,16.1919 2.0172,12.2379 3.7332,11.1719 C3.7332,11.1719 3.8032,11.1279 3.9672,11.0329 C4.1192,10.9459 4.3522,10.8159 4.6862,10.6389 C5.1642,10.3849 5.8512,10.0329 6.8062,9.5659 C9.1492,8.4249 11.4512,5.8019 13.5912,3.6399 C13.8632,3.3649 14.1272,3.1139 14.3802,2.8839 C14.5722,2.7099 14.7602,2.5479 14.9422,2.3969 C16.9502,0.7359 18.3202,0.5029 19.1802,0.6729 C20.0052,0.8349 20.3612,1.3659 20.3612,1.3659" id="Fill-13" fill="#432C82" mask="url(#lower-sitting-on-floorleggings-2-mask-2)"/></g><g id="Group-18" transform="translate(110.000000, 30.000000)" fill="#FF67FF"><path d="M11.3612,1.3659 L2.2082,23.9879 C1.8342,24.0329 1.3632,23.9489 0.8312,23.7769 L10.1802,0.6729 C11.0042,0.8349 11.3612,1.3659 11.3612,1.3659" id="Fill-16"/></g><path d="M113.142,51.6804 L112.87,52.3524 C112.375,51.3714 111.454,50.2684 109.74,49.6704 C107.46,48.8744 105.411,49.6064 104.249,50.2204 C104.039,50.0934 103.841,49.9774 103.661,49.8764 C104.835,49.1824 107.201,48.1694 109.931,49.1204 C111.567,49.6924 112.551,50.7024 113.142,51.6804" id="Fill-19" fill="#FF67FF"/><path d="M60.036,28.5798 C60.23,28.6248 60.423,28.6698 60.619,28.7148 C60.534,28.6898 60.332,28.6428 60.036,28.5798" id="Fill-21" fill="#8A60E2"/><path d="M44.0922,25.4636 C51.5152,26.8846 58.0392,28.1496 60.0362,28.5796 C53.6032,27.0896 47.8352,25.9076 44.0922,25.4636" id="Fill-23" fill="#8A60E2"/><path d="M51.3544,41.0729 C51.5064,41.1039 51.6634,41.1359 51.8304,41.1709 C51.7634,40.9519 51.7274,40.8319 51.7274,40.8319 C51.7274,40.8319 51.5974,40.9219 51.3544,41.0729" id="Fill-25" fill="#8A60E2"/><path d="M60.036,28.5795 C58.039,28.1495 51.515,26.8845 44.092,25.4635 C31.511,23.0535 16.362,20.1945 16.362,20.1945 L4.46225284,20.1945 C4.46225284,20.1945 -7.07765302,47.7315 10.7600677,48.0064 C20.9507088,48.0064 21.1705218,48.0837413 32.0755688,45.8959207 C42.9806158,43.7081 45.8726137,40.5014 51.83,41.1705 C55.305,41.8775 61.769,43.1815 67.049,44.1705 C69.808,44.6885 72.245,45.1195 73.755,45.3345 C79.431,46.1425 97.331,47.7315 97.331,47.7315 L99.729,38.9095 C99.729,38.9095 77.949,32.7555 60.619,28.7145 C60.423,28.6695 60.23,28.6245 60.036,28.5795 Z" id="Fill-27" fill="#403289"/></g></g></g></g><g id="Head" transform="translate(33.000000, 40.000000) scale(1 1)" blush:width="70" blush:height="81" blush:component="Head"><g id="Head/Wavy" stroke="none" stroke-width="1" fill="none" fill-rule="evenodd"><g id="Head" transform="translate(10.000000, 10.000000)"><path d="M37.7467694,7.65285849 C37.3317694,4.86185849 36.0537694,2.07785849 33.7407694,0.45085849 C33.3267694,0.15885849 32.8167694,-0.10214151 32.3297694,0.0398584902 C30.8547694,0.47085849 32.1257694,3.09085849 31.0187694,4.15585849 C29.0797694,3.13085849 27.1407694,2.10585849 25.2017694,1.08185849 C23.8497694,0.36685849 22.0267694,-0.29314151 20.9397694,0.78185849 C19.8567694,1.85385849 20.4957694,3.66985849 21.1927694,5.02185849 C19.4987694,5.21885849 17.8047694,5.41785849 16.1107694,5.61485849 C14.2277694,5.83485849 12.2957694,6.06885849 10.6147694,6.94285849 C8.9327694,7.81585849 7.5287694,9.48185849 7.5297694,11.3728585 C7.5297694,13.2628585 9.3837694,15.1008585 11.2217694,14.6368585 C8.6687694,15.9418585 6.2927694,17.5908585 4.1797694,19.5268585 C2.4987694,21.0668585 0.879769402,23.0748585 1.0867694,25.3418585 C1.2937694,27.6088585 4.4447694,29.3708585 5.9567694,27.6658585 C3.1427694,30.0128585 1.1187694,33.2848585 0.276769402,36.8448585 C-0.122230598,38.5308585 -0.211230598,40.4628585 0.846769402,41.8378585 C2.2837694,43.7048585 5.2857694,43.6518585 7.2607694,42.3628585 C9.2367694,41.0748585 10.4317694,38.9148585 11.5487694,36.8398585 C13.0647694,38.5548585 14.1557694,40.6108585 15.6727694,42.3248585 C17.1897694,44.0398585 19.3477694,45.4448585 21.6277694,45.2008585 C23.2077694,45.0308585 24.6177694,43.8008585 25.0637694,42.2888585 C25.5627694,40.5968585 25.0617694,40.8658585 26.7877694,40.6228585 C28.3557694,40.4008585 29.6877694,39.7428585 31.0517694,38.9618585 C31.5757694,38.6618585 32.1057694,38.3558585 32.5347694,37.9308585 C34.5997694,35.8808585 33.6527694,33.0598585 33.6497694,30.5308585 C33.6397694,22.4898585 38.9517694,15.7638585 37.7467694,7.65285849" id="Fill-139" fill="#2A0952"/><path d="M24.8380694,12.9165585 C24.5390694,12.9905585 24.2280694,13.0845585 24.0090694,13.3015585 C23.5480694,13.7565585 23.6800694,14.5185585 23.8450694,15.1445585 C23.2390694,14.8975585 22.6330694,14.6505585 22.0280694,14.4045585 C20.4070694,13.7445585 18.4760694,13.1055585 17.0020694,14.0475585 C16.3530694,14.4615585 15.8800694,15.2985585 16.1890694,16.0035585 C16.5990694,16.9365585 22.1300694,15.9795585 23.1350694,15.8135585 C22.5500694,16.2525585 17.5860694,17.3485585 16.9080694,17.6195585 C16.2300694,17.8915585 15.5440694,18.3695585 15.4060694,19.0875585 C15.2430694,19.9425585 15.9700694,20.7655585 16.8010694,21.0275585 C17.0150694,21.0955585 17.2500694,21.1355585 17.4630694,21.0655585 C17.7080694,20.9865585 17.8850694,20.7795585 18.0490694,20.5815585 C18.6670694,19.8355585 22.1580694,16.9825585 22.7760694,16.2365585 C21.8680694,18.4885585 19.2550694,20.9285585 18.6300694,22.8995585 C18.1590694,24.3865585 19.2850694,27.8395585 20.7430694,28.3905585 C22.2010694,28.9415585 21.5850694,27.1695585 23.0290694,26.5845585 C24.1140694,26.1455585 25.1380694,25.5585585 26.0650694,24.8445585 C26.8090694,24.2705585 27.4960694,23.6125585 28.3170694,23.1575585 C29.9070694,22.2755585 31.8580694,22.2295585 33.4430694,21.3395585 C34.8280694,20.5625585 36.1480694,19.0095585 36.7850694,17.5535585 C37.4880694,15.9455585 35.8210694,15.0945585 34.5700694,14.3675585 C31.6690694,12.6805585 28.1060694,12.1005585 24.8380694,12.9165585" id="Fill-141" fill="#F376DA"/><path d="M23.5119694,32.8022585 C23.5119694,32.8022585 20.4289694,30.3562585 20.7689694,23.7792585 C21.1109694,17.2002585 26.1129694,14.4052585 28.7899694,14.1232585 C31.4679694,13.8422585 36.9509694,14.0592585 40.0829694,18.8622585 C40.0829694,18.8622585 43.5439694,19.5112585 44.3929694,24.6582585 C45.2419694,29.8062585 39.3889694,31.4582585 39.3889694,31.4582585 C39.3889694,31.4582585 38.5429694,39.9292585 34.3269694,40.0162585 C30.1119694,40.1032585 23.5119694,32.8022585 23.5119694,32.8022585" id="Fill-143" fill="#2A0952"/><path d="M36.1268951,19.2116197 L36.3208437,19.2894973 L36.2677344,19.4087227 C36.2435738,19.4595934 36.212824,19.5213144 36.1750897,19.5930505 C36.0502136,19.8304513 35.891085,20.0945144 35.6945414,20.3785435 C35.1342119,21.1882869 34.386342,21.9973706 33.4257893,22.7520009 C31.9207398,23.9343993 30.0371334,24.8692825 27.7339458,25.4672334 L27.2677017,25.5823046 L27.2200371,25.3788124 C29.7069288,24.7963003 31.7152344,23.830065 33.2966741,22.5876529 C34.2402585,21.8463533 34.9739072,21.0526549 35.5226772,20.2596162 C35.7143185,19.9826716 35.8690949,19.7258306 35.9901188,19.4957532 L36.0779774,19.3211246 L36.1268951,19.2116197 Z" id="Stroke-149" fill="#4165E3" fill-rule="nonzero"/><path d="M32.0195029,20.0240327 L32.1724359,20.1664843 L32.0542517,20.2875638 C31.9355603,20.404904 31.7666851,20.5619519 31.5500819,20.7482555 C31.0457505,21.1820385 30.4614429,21.6156388 29.8038382,22.0203243 C28.7538367,22.6664881 27.6217572,23.1745244 26.419065,23.4949658 L25.9647678,23.6062413 L25.919171,23.4022757 C27.2677286,23.1008039 28.5317373,22.557762 29.6943008,21.8423284 C30.3420073,21.4437342 30.9174967,21.0166776 31.4137952,20.5898038 L31.6455623,20.3854744 C31.7151247,20.3224975 31.77694,20.2648768 31.8308469,20.2132814 L32.0195029,20.0240327 Z" id="Stroke-151" fill="#4165E3" fill-rule="nonzero"/><path d="M33.5834099,26.5402256 L33.7667289,25.4890914 L34.1611385,25.5527919 C34.4453537,25.5956457 34.7708813,25.6391896 35.1302912,25.6829232 C35.461709,25.7232506 35.8093316,25.7622488 36.162395,25.7993407 L37.4052472,25.9201607 L37.3128916,26.9831562 L36.5901509,26.9153397 C36.2293331,26.8798056 35.8684562,26.8420329 35.5179901,26.8025505 L35.0014076,26.7421106 C34.5382618,26.6857543 34.12801,26.6294665 33.7827038,26.5736533 L33.5834099,26.5402256 Z" id="Stroke-153" fill="#2A0952" fill-rule="nonzero"/><path d="M33.8893,43.8614 L33.6873,51.5304 C33.6213,54.2234 31.9273,55.6234 29.2773,55.5384 C27.0143,55.4654 24.9273,54.2284 24.7193,51.9744 L25.6173,39.9214 L33.8893,43.8614 Z" id="Fill-3" fill="#604891" blush:skin="500"/><path d="M33.7643,47.6016025 C28.3973,47.6070235 24.9903,40.6016025 24.9903,40.6016025 L33.9253,42.6083815 L33.7643,47.6016025 Z" id="Fill-6" fill-opacity=".18" fill="#00023C"/><path d="M30.0011694,43.6089585 L30.0011694,43.6089585 C34.4211694,44.3279585 38.6291694,41.4279585 39.3371694,37.8379585 L40.9581694,29.3579585 C41.8461694,24.8589585 39.5731694,20.5569585 35.1051694,19.5209585 L35.1051694,19.5209585 C30.5311694,18.4619585 24.5941694,21.0339585 23.5341694,25.6069585 L22.3051694,32.4419585 C21.3551694,37.7279585 24.7691694,42.3959585 30.0011694,43.6089585" id="Fill-155" fill="#604891" blush:skin="500"/><path d="M18.1510694,32.9448585 C17.7160694,34.8198585 18.8840694,36.6918585 20.7590694,37.1268585 C22.6340694,37.5608585 24.5060694,36.3928585 24.9410694,34.5178585 C25.3760694,32.6428585 24.2080694,30.7708585 22.3330694,30.3368585 C20.4580694,29.9018585 18.5860694,31.0698585 18.1510694,32.9448585" id="Fill-157" fill="#604891" blush:skin="500"/><path d="M22.4987694,35.0161585 C22.4987694,35.0161585 23.0687694,32.5541585 20.6257694,32.3961585" id="Fill-159" fill-opacity=".18" fill="#00023C"/><path d="M37.7477694,25.2934585 C37.7927694,26.5914585 38.0577694,27.8804585 38.5287694,29.0904585 C37.3147694,28.8934585 36.1007694,28.6944585 34.8867694,28.4964585 C34.0437694,28.3594585 33.1307694,28.1844585 32.5677694,27.5424585 C31.6647694,26.5134585 32.1197694,24.8634585 31.5377694,23.6244585 C30.3527694,25.1124585 29.7137694,27.0244585 29.7647694,28.9264585 C28.4237694,29.1934585 27.0407694,28.9064585 25.7047694,28.6194585 C24.6117694,28.3854585 23.3597694,28.0244585 22.9277694,26.9944585 C22.6607694,26.3554585 22.7937694,25.6254585 22.9637694,24.9544585 C23.6607694,22.2064585 25.1087694,19.4024585 27.6927694,18.2374585 C29.6607694,17.3494585 31.9607694,17.5694585 34.0337694,18.1744585 C36.7767694,18.9744585 39.5127694,20.6304585 40.5007694,23.3114585 C40.7527694,23.9934585 40.8807694,24.7144585 41.0067694,25.4314585 C41.1937694,26.4924585 42.5927694,30.7304585 40.4147694,29.3144585 C39.4597694,28.6914585 37.5437694,26.5694585 37.7477694,25.2934585" id="Fill-189" fill="#2A0952"/></g></g></g><g id="Expression" transform="translate(64.000000, 76.000000) scale(1 1)" blush:width="24" blush:height="20" blush:component="Expression"><defs><polygon id="expressionsad-path-1" points="0.297247914 0.0351299467 5.32523643 0.0351299467 5.32523643 2 0.297247914 2"/><polygon id="expressionsad-path-3" points="0.316223631 0.675897151 3.768 0.675897151 3.768 3.6585458 0.316223631 3.6585458"/></defs><g id="Expression/Sad" stroke="none" stroke-width="1" fill="none" fill-rule="evenodd"><g id="Group-33" transform="translate(4.500000, 5.400000)"><polygon id="Fill-1" fill="#0E47BB" points="7.5303 3.0529 7.5633 3.0669 7.5613 3.0339"/><g id="Group-32" transform="translate(0.000000, 0.389800)"><path d="M0.6757,1.705 C0.6307,1.664 0.5827,1.618 0.5327,1.585 C0.5827,1.618 0.6307,1.664 0.6757,1.705 M0.1267,1.464 C0.4567,2.224 1.3487,2.638 2.1047,2.801 C2.7257,2.934 3.4877,2.714 4.0437,2.445 C4.5177,2.217 4.8827,1.813 5.1257,1.353 C5.2157,1.183 5.1427,0.99 4.9607,0.879 C4.7747,0.767 4.6067,0.795 4.4817,0.979 C4.1187,1.514 3.2817,2.129 2.6207,2.128 C1.8287,2.126 1.2727,1.56 0.8047,0.973 C0.6457,0.772 0.0877,1.085 0.0867,1.3 C0.0867,1.35 0.1007,1.405 0.1267,1.464" id="Fill-6" fill="#2A0952"/><path d="M13.0883,2.0995 C13.0353,2.1265 12.9833,2.1665 12.9333,2.2035 C12.9833,2.1665 13.0353,2.1265 13.0883,2.0995 M13.4493,1.8105 C13.3783,1.5585 13.0703,1.2775 12.8863,1.4605 C12.5983,1.7495 12.2763,1.9975 11.9293,2.2115 C11.7953,2.2515 11.6613,2.2905 11.5273,2.3295 C11.2493,2.3155 10.9723,2.3005 10.6943,2.2865 C10.0843,2.0215 9.5533,1.6635 9.2333,1.0535 C9.1303,0.8565 8.9663,0.8095 8.7683,0.9015 C8.5753,0.9905 8.4813,1.1735 8.5513,1.3535 C8.9603,2.4015 10.1203,3.0725 11.2283,3.0005 C11.9213,2.9565 12.6343,2.6755 13.1923,2.2685 C13.2923,2.1965 13.3953,2.1175 13.4453,2.0035 C13.4703,1.9495 13.4693,1.8805 13.4493,1.8105" id="Fill-8" fill="#2A0952"/><g id="Group-12" transform="translate(4.000000, 7.000000)"><mask id="expressionsad-mask-2" fill="#fff"><use xlink:href="#expressionsad-path-1"/></mask><g id="Clip-11"/><path d="M0.766,1.9462 C0.922,1.8422 1.106,1.6212 1.206,1.5422 C1.642,1.1972 2.134,0.9142 2.674,0.7712 C3.074,0.6662 3.495,0.6402 3.906,0.6942 C4.106,0.7202 4.305,0.7652 4.497,0.8302 C4.643,0.8792 4.833,0.9692 4.987,0.9722 C5.061,0.9742 5.138,0.9482 5.188,0.8932 C5.244,0.8302 5.29,0.7582 5.325,0.6812 C5.33,0.5262 5.255,0.4032 5.166,0.2862 C4.943,0.1782 4.68,0.1672 4.435,0.1352 C4.163,0.1002 3.889,0.0732 3.615,0.0522 C3.433,0.0392 3.25,0.0292 3.068,0.0392 C2.554,0.0642 2.007,0.2312 1.546,0.4582 C1.334,0.5622 1.136,0.7202 0.946,0.8612 C0.847,0.9352 0.748,1.0112 0.654,1.0912 C0.584,1.1492 0.408,1.2572 0.376,1.3422 C0.35,1.4112 0.325,1.4812 0.298,1.5502 C0.287,1.5822 0.4,1.7832 0.419,1.8192 C0.459,1.8932 0.522,1.9902 0.617,2.0002 C0.66,2.0042 0.711,1.9822 0.766,1.9462" id="Fill-10" fill="#2A0952" mask="url(#expressionsad-mask-2)"/></g><path d="M7.9379,3.3016 C8.0339,3.4396 8.1339,3.5726 8.2289,3.7096 C8.3439,3.8786 8.4389,4.0546 8.5359,4.2346 C8.5449,4.2536 8.5419,4.2456 8.5259,4.2096 C8.5309,4.2216 8.5359,4.2336 8.5399,4.2456 C8.5459,4.2626 8.5519,4.2806 8.5579,4.2976 C8.5639,4.3196 8.5689,4.3416 8.5749,4.3636 C8.5909,4.4236 8.5599,4.3606 8.5739,4.3476 C8.5739,4.3486 8.5739,4.4036 8.5749,4.4046 C8.5659,4.3946 8.5949,4.3216 8.5769,4.3776 C8.5629,4.4186 8.6209,4.3076 8.5789,4.3636 C8.5719,4.3756 8.5639,4.3866 8.5559,4.3986 C8.5739,4.3766 8.5719,4.3786 8.5499,4.4046 C8.5309,4.4246 8.5129,4.4456 8.4929,4.4636 C8.4849,4.4716 8.4039,4.5376 8.4459,4.5066 C8.3929,4.5456 8.3369,4.5796 8.2789,4.6106 C8.2539,4.6236 8.2289,4.6366 8.2029,4.6496 C8.1939,4.6536 8.0949,4.6976 8.1429,4.6776 C8.0809,4.7026 8.0189,4.7256 7.9569,4.7476 C7.8139,4.7986 7.7029,4.9476 7.7529,5.1056 C7.7989,5.2456 7.9579,5.3636 8.1109,5.3086 C8.4109,5.2016 8.7219,5.0736 8.9419,4.8356 C9.0549,4.7156 9.1429,4.5846 9.1549,4.4176 C9.1629,4.3176 9.1419,4.2116 9.1099,4.1166 C8.9699,3.7036 8.6869,3.3606 8.4399,3.0086 C8.3499,2.8796 8.1859,2.8206 8.0419,2.9046 C7.9149,2.9786 7.8469,3.1726 7.9379,3.3016" id="Fill-13" fill-opacity=".18" fill="#00023C"/><path d="M3.8451,5.8759 C3.5851,6.2399 3.1751,6.4929 2.7371,6.5979 C2.2321,6.7179 1.6941,6.6529 1.2051,6.4779 C0.8861,6.3619 0.5751,6.1949 0.3521,5.9379 C-0.0329,5.4959 -0.0589,4.6829 0.0701,4.1329 C0.1471,3.8039 0.3371,3.4889 0.6321,3.3229 C1.0641,3.0769 1.5341,3.0589 2.0081,3.1469 C2.4271,3.2239 2.8511,3.3129 3.2251,3.5169 C3.9701,3.9249 4.3671,4.9219 3.9541,5.6999 C3.9221,5.7619 3.8851,5.8199 3.8451,5.8759" id="Fill-15" fill-opacity=".5" fill="#FF37B8"/><path d="M0.7489,5.2235 C0.6979,5.2235 0.6459,5.2075 0.6019,5.1755 C0.4899,5.0935 0.4659,4.9375 0.5469,4.8265 L1.2049,3.9265 C1.2869,3.8155 1.4429,3.7915 1.5539,3.8715 C1.6649,3.9535 1.6889,4.1105 1.6079,4.2215 L0.9509,5.1205 C0.9019,5.1885 0.8259,5.2235 0.7489,5.2235" id="Fill-17" fill="#FFD0F6"/><path d="M2.6523,5.9745 L2.6383,5.9745 C2.5003,5.9665 2.3953,5.8485 2.4023,5.7105 L2.4653,4.5985 C2.4723,4.4605 2.5893,4.3585 2.7283,4.3625 C2.8663,4.3705 2.9713,4.4885 2.9643,4.6255 L2.9023,5.7385 C2.8943,5.8715 2.7843,5.9745 2.6523,5.9745" id="Fill-19" fill="#FFD0F6"/><path d="M1.5287,5.6932 C1.4897,5.6932 1.4507,5.6842 1.4147,5.6662 C1.2917,5.6022 1.2427,5.4522 1.3067,5.3292 L1.8867,4.1992 C1.9497,4.0762 2.1007,4.0292 2.2237,4.0902 C2.3467,4.1542 2.3947,4.3042 2.3317,4.4272 L1.7507,5.5572 C1.7067,5.6432 1.6187,5.6932 1.5287,5.6932" id="Fill-21" fill="#FFD0F6"/><g id="Group-25" transform="translate(10.000000, 3.000000)"><mask id="expressionsad-mask-4" fill="#fff"><use xlink:href="#expressionsad-path-3"/></mask><g id="Clip-24"/><path d="M0.5473,3.0028 C0.7653,3.3088 1.1083,3.5208 1.4753,3.6068 C1.8983,3.7078 2.3493,3.6538 2.7583,3.5068 C3.0263,3.4098 3.2863,3.2708 3.4733,3.0558 C3.7963,2.6848 3.8183,2.0028 3.7103,1.5428 C3.6453,1.2668 3.4853,1.0038 3.2393,0.8638 C2.8773,0.6578 2.4833,0.6428 2.0863,0.7158 C1.7353,0.7808 1.3803,0.8558 1.0673,1.0268 C0.4423,1.3678 0.1093,2.2028 0.4563,2.8558 C0.4833,2.9068 0.5133,2.9558 0.5473,3.0028" id="Fill-23" fill-opacity=".5" fill="#FF37B8" mask="url(#expressionsad-mask-4)"/></g><path d="M13.141,5.4969 C13.064,5.4969 12.988,5.4619 12.939,5.3939 L12.389,4.6419 C12.308,4.5299 12.332,4.3739 12.443,4.2919 C12.554,4.2109 12.71,4.2329 12.792,4.3469 L13.343,5.0999 C13.424,5.2109 13.4,5.3669 13.288,5.4489 C13.244,5.4809 13.192,5.4969 13.141,5.4969" id="Fill-26" fill="#FFD0F6"/><path d="M11.5463,6.1259 C11.4143,6.1259 11.3043,6.0229 11.2963,5.8899 L11.2453,4.9579 C11.2373,4.8199 11.3423,4.7019 11.4813,4.6939 C11.6263,4.6919 11.7363,4.7929 11.7443,4.9309 L11.7963,5.8619 C11.8033,5.9999 11.6983,6.1179 11.5603,6.1259 L11.5463,6.1259 Z" id="Fill-28" fill="#FFD0F6"/><path d="M12.4877,5.8905 C12.3977,5.8905 12.3097,5.8405 12.2657,5.7545 L11.7797,4.8085 C11.7157,4.6855 11.7637,4.5355 11.8867,4.4715 C12.0097,4.4105 12.1617,4.4575 12.2237,4.5795 L12.7097,5.5265 C12.7737,5.6495 12.7247,5.7995 12.6017,5.8635 C12.5657,5.8815 12.5267,5.8905 12.4877,5.8905" id="Fill-30" fill="#FFD0F6"/></g></g><path d="M8.27057147,4.64864226 C9.16157147,4.22364226 8.70757147,2.85064226 7.73357147,3.00964226 C6.88457147,3.14964226 5.85457147,3.48364226 5.43957147,4.27964226 C4.68057147,5.73764226 7.28057147,5.09164226 8.24257147,4.66164226 C8.25157147,4.65764226 8.26157147,4.65264226 8.27057147,4.64864226" id="Fill-3" fill="#2C2263"/><path d="M14.6905798,4.90050512 C13.9255798,4.58850512 14.2395798,3.41850512 15.0615798,3.50450512 C15.7775798,3.58050512 16.6545798,3.81050512 17.0405798,4.45650512 C17.7455798,5.63850512 15.5395798,5.22350512 14.7145798,4.91050512 C14.7065798,4.90750512 14.6985798,4.90450512 14.6905798,4.90050512" id="Fill-5" fill="#2C2263"/></g></g><g id="Upper" transform="translate(7.000000, 41.000000) scale(1 1)" blush:width="170" blush:height="148" blush:component="Upper"><g id="Upper/Holding Laptop 1" stroke="none" stroke-width="1" fill="none" fill-rule="evenodd"><g id="Upper" transform="translate(32.000000, 53.000000)"><polygon id="Path" fill="#974CCD" points="16.5744 53.5731088 16.5744 58.8245 26.8446 56.9706 27.5744 50.0375043"/><path d="M67.5866,21.824 C67.5866,21.824 74.0996,23.261 78.6026,27.586 L70.1966,25.585 L67.5866,21.824 Z" id="Fill-191" fill="#C4B8EE"/><path d="M47.7673,33.0242 C47.0303,31.4682 45.7133,29.5912 46.2753,27.8932 C46.7503,26.4572 48.1693,25.2842 49.4483,24.5862 C50.6033,23.9542 51.9013,23.5392 53.2183,23.5622 C56.4143,23.6212 56.8133,25.7092 57.9963,28.1402 C58.4823,29.1402 58.9863,30.0932 59.5203,30.9272 C60.0513,31.7572 60.6023,32.4842 61.0933,32.9692 C61.3353,33.2122 61.5593,33.3882 61.7233,33.5092 C61.8893,33.6272 61.9933,33.6752 62.0383,33.7002 C62.0603,33.7112 62.0713,33.7182 62.1063,33.7412 L62.0583,33.7442 L61.9623,33.7502 C61.6973,33.7742 61.5103,33.8092 61.3383,33.8522 C61.2633,33.8712 61.1913,33.8912 61.1253,33.9132 C61.0713,33.9292 61.0073,33.9542 60.9633,33.9692 C60.7763,34.0432 60.6893,34.0942 60.6423,34.1242 C60.5963,34.1532 60.5983,34.1582 60.6163,34.1492 C60.6363,34.1392 60.6743,34.1182 60.7263,34.0812 C60.9373,33.9352 61.2853,33.6382 61.6403,33.3052 C61.9983,32.9662 63.3763,34.5772 63.7573,34.1652 C64.5293,33.3442 65.3053,32.4292 66.0873,31.4972 C69.2073,27.7392 74.4983,17.6502 74.4983,17.6502 L81.2053,21.6162 C81.0643,21.9472 80.9343,22.2442 80.7963,22.5532 C80.6593,22.8602 80.5243,23.1672 80.3823,23.4682 C80.1023,24.0752 79.8133,24.6742 79.5183,25.2732 C78.9293,26.4682 78.3123,27.6492 77.6723,28.8232 C76.3883,31.1692 75.0113,33.4742 73.4663,35.7592 C72.6933,36.9072 71.8693,38.0382 70.9533,39.1902 C70.4893,39.7632 69.9993,40.3392 69.4523,40.9302 C68.8983,41.5242 68.3043,42.1252 67.4903,42.7782 C67.2883,42.9412 67.0633,43.1102 66.8143,43.2832 C66.5643,43.4572 66.2923,43.6342 65.9603,43.8202 C65.6293,44.0042 65.2483,44.1972 64.7563,44.3802 C64.6373,44.4262 64.4953,44.4732 64.3633,44.5152 C64.2203,44.5592 64.0703,44.6012 63.9163,44.6402 C63.5863,44.7182 63.2403,44.7852 62.8123,44.8192 L62.6563,44.8302 L62.5443,44.8362 L62.4263,44.8402 L62.1873,44.8462 C62.0293,44.8522 61.8693,44.8462 61.7093,44.8442 C61.3903,44.8362 61.0703,44.8142 60.7523,44.7782 C60.1163,44.7072 59.4883,44.5812 58.8893,44.4102 C57.6873,44.0672 56.6103,43.5492 55.6833,42.9692 C54.7533,42.3882 53.9683,41.7392 53.2743,41.0832 C51.8973,39.7612 50.8703,38.4052 49.9963,37.0552 C49.1243,35.7052 48.4013,34.3652 47.7673,33.0242" id="Fill-193" fill="#9287C0"/><path d="M74.5109,22.7449 C75.4949,24.0709 77.1659,24.6899 78.7949,24.4219 C79.5709,24.2939 80.4699,24.0459 81.3809,23.5829 C82.0119,23.2619 82.7919,22.6889 83.3419,22.7499 C84.7079,22.8979 85.2059,21.9549 85.5529,21.8679 C85.8759,22.0239 86.3319,22.1609 86.8909,22.0989 C87.6019,22.0229 88.1919,21.7639 88.5369,21.5759 L88.5389,21.5759 C89.8979,21.5589 91.0839,21.6109 91.4669,21.3439 C92.2329,20.8109 92.9779,15.5839 91.6729,15.3679 C89.9449,15.0829 90.8229,18.9369 89.2449,19.6669 C89.2449,19.6669 90.4319,14.7939 88.4869,14.4339 C87.1589,14.1889 86.9469,19.0479 85.5349,19.9279 C85.5349,19.9279 86.8729,15.4139 85.4379,14.6899 C84.0029,13.9659 84.0069,19.4079 82.5419,19.5489 C82.2429,19.5759 83.7299,15.6939 82.0099,15.4839 C80.2899,15.2749 81.2509,19.9139 76.1659,19.8089 C74.1059,19.7669 73.2699,21.0709 74.5109,22.7449" id="Fill-195" fill="#9287C0"/><path d="M57.6921,20.3719 L94.8881,20.3719 C95.8401,20.3719 96.6121,19.6009 96.6121,18.6479 C96.6121,17.6959 95.8401,16.9239 94.8881,16.9239 L57.6921,16.9239 C56.7401,16.9239 55.9681,17.6959 55.9681,18.6479 C55.9681,19.6009 56.7401,20.3719 57.6921,20.3719" id="Fill-197" fill="#8A60E2"/><path d="M67.0432,20.3719 L95.2122,20.3719 C95.8782,20.3719 96.4832,19.9839 96.7602,19.3789 L104.4612,2.5609 C104.9782,1.4349 104.1542,0.1509 102.9142,0.1509 L74.7442,0.1509 C74.0782,0.1509 73.4742,0.5389 73.1962,1.1439 L65.4952,17.9609 C64.9792,19.0889 65.8032,20.3719 67.0432,20.3719" id="Fill-199" fill="#432C82"/><path d="M86.8518,7.2332 C87.4208,8.4042 88.1648,9.3862 88.9638,10.3282 C89.1318,10.5262 89.1678,10.6512 88.9168,10.8232 C88.0428,11.4242 87.3498,12.2092 86.7758,13.0932 C86.6028,13.3592 86.4898,13.3482 86.3248,13.1202 C85.6148,12.1312 84.8538,11.1902 83.9248,10.3932 C83.6138,10.1262 83.8718,9.9552 84.0858,9.8142 C85.1308,9.1292 85.9428,8.1962 86.8518,7.2332" id="Fill-201" fill="#FF67FF"/><path d="M37.7510182,4.48266677 C45.1324401,5.43903457 48.4889133,11.1925256 51.1271,14.5025 C53.8201,17.8835 64.6411,32.1675 64.6411,32.1675 C64.6411,32.1675 66.0411,28.5755 68.2581,23.0305 L77.6571,27.4605 C76.9821,31.7205 76.2391,36.4235 75.8981,38.6575 C75.1941,43.2665 73.3191,52.7255 65.2681,52.7255 C63.1891,52.7255 48.1331,37.4275 48.1331,37.4275 L48.1331,56.8246 L44.0926,56.8246 L41.5371,24.2335 C38.9089383,11.0528034 37.646911,4.46919229 37.7510182,4.48266677 Z" id="Fill-203" fill="#974CCD"/><path d="M25.5126,4.4286 L26.8446,56.9706 L44.0926,56.8246 C44.0926,56.8246 45.8856,28.6936 44.2076,21.3316 C42.3606,13.2276 38.9426,4.6876 38.9426,4.6876 L37.7385405,4.4285 C37.3595405,6.6925 32.2886,9.2276 28.4196,3.5496 L25.5126,4.4286 Z" id="Fill-205" fill="#FFB700"/><path d="M27.5744,41.8992 L45.3614,41.8992 C45.3654,42.2762 45.3654,42.6372 45.3614,42.9802 L27.6544,42.9802 L27.5744,41.8992 Z" id="Fill-207" fill="#EFF2F9"/><path d="M27.7937,3.7391 C27.7937,3.7391 19.6637,5.9161 16.4857,8.6211 C13.3077,11.3251 6.2177,27.3011 3.6387,34.0441 C-0.0453,43.6781 -2.0403,58.6551 11.0767,56.3561 C24.1937,54.0571 26.2857,53.3821 26.2857,53.3821 L26.2857,46.8231 L31.1577,44.7261 L31.8347,24.3071 L27.7937,3.7391 Z" id="Fill-209" fill="#974CCD"/><path d="M28.7072,39.7234 C28.7072,39.7234 30.8212,46.0484 29.4222,52.1334 L26.8212,43.8944 L28.7072,39.7234 Z" id="Fill-211" fill="#C4B8EE"/><path d="M39.7849,42.1287 C38.9979,39.5607 36.2789,38.1147 33.7099,38.9017 L33.5709,38.9447 L30.3679,39.9267 C29.2889,40.2557 28.2099,40.5767 27.1309,40.8867 C26.5299,41.0647 25.9309,41.2247 25.3309,41.3927 C25.0199,45.1767 24.9309,49.0127 25.5079,52.7507 C26.0769,52.5557 26.6559,52.3687 27.2159,52.1667 C28.3549,51.7467 29.4819,51.3097 30.5969,50.8637 C31.7109,50.4127 32.8149,49.9497 33.9129,49.4707 L35.5539,48.7347 L37.2089,47.9537 C39.3649,46.9397 40.5039,44.4707 39.7849,42.1287" id="Fill-213" fill="#604891" blush:skin="500"/><path d="M34.111,41.2225 C34.111,41.2225 33.954,39.2125 35.343,38.1955 C36.733,37.1775 40.875,34.5325 41.776,33.7115 C42.676,32.8915 43.551,34.4725 42.451,35.9525 C41.351,37.4335 40.544,38.3635 40.544,38.3635 C40.544,38.3635 44.007,35.9825 45.667,35.0335 C47.326,34.0835 49.429,32.4515 50.066,32.9095 C50.702,33.3665 49.519,35.2485 45.009,38.0005 C45.009,38.0005 50.511,35.7535 51.385,35.6635 C52.333,35.5655 52.657,36.4195 50.319,37.8445 C47.98,39.2695 45.555,40.4555 45.555,40.4555 C45.555,40.4555 46.63,39.8825 47.44,40.5855 C48.251,41.2895 46.755,42.4465 46.755,42.4465 C46.755,42.4465 48.606,43.2925 46.439,44.7125 C44.272,46.1315 37.997,47.5975 36.407,46.8565 C34.818,46.1145 34.111,41.2225 34.111,41.2225" id="Fill-215" fill="#604891" blush:skin="500"/><path d="M25.5124,50.7273 L23.0304,50.9983 C22.7274,47.1963 23.2084,43.1973 23.4544,41.5113 C23.5274,41.0173 23.9054,40.6263 24.3964,40.5343 L28.7074,39.7233 C28.4784,45.2753 29.1004,50.0893 29.4224,52.1333 C29.5144,52.7223 29.1334,53.2803 28.5514,53.4063 L24.6434,54.2513 C24.0504,54.3793 23.4564,54.0013 23.3434,53.4063 C23.2414,52.8713 23.1614,52.3203 23.1004,51.7613 L25.5124,50.7273 Z" id="Fill-217" fill="#EA9800"/><path d="M75.3869,30.2176 L74.3449,32.4876 C70.9269,30.7926 67.7419,28.3256 66.4229,27.2496 C66.0359,26.9336 65.8949,26.4076 66.0679,25.9396 L67.5869,21.8236 C72.2319,24.8726 76.6829,26.8126 78.6019,27.5856 C79.1549,27.8086 79.4379,28.4226 79.2459,28.9866 L77.9639,32.7746 C77.7689,33.3486 77.1399,33.6636 76.5709,33.4546 C76.0599,33.2686 75.5459,33.0526 75.0349,32.8186 L75.3869,30.2176 Z" id="Fill-219" fill="#EA9800"/></g></g></g></g></svg>