<svg viewBox="14.905000000000001 20.98595505617979 222.22000000000006 201.73595505617982"
     xmlns="http://www.w3.org/2000/svg" xmlns:xlink="http://www.w3.org/1999/xlink" xmlns:blush="http://design.blush"
     overflow="visible" width="1000.0000000000001px" height="907.8208759615686px">
    <g id="Master/Background/Abstract 5" stroke="none" stroke-width="1" fill="none" fill-rule="evenodd">
        <path d="M227.287,122.944 C227.287,177.423 183.123,221.589 128.643,221.589 C74.164,221.589 30,177.423 30,122.944 C30,68.465 74.164,24.3 128.643,24.3 C183.123,24.3 227.287,68.465 227.287,122.944"
              id="Background" fill="#C2F5FF"/>
        <g id="Decoration" transform="translate(6.000000, 109.894232) scale(1 1)" blush:width="24" blush:height="24"
           blush:component="Decoration">
            <g id="Decoration/Sparkle 7" stroke="none" stroke-width="1" fill="none" fill-rule="evenodd">
                <path d="M16.9125522,19.3673 C16.9305522,19.7213 16.7985522,19.8933 16.6015522,20.0293 C16.3245522,20.2223 16.0665522,20.5163 15.7595522,20.5843 C14.3505522,20.8883 13.9115522,22.0553 13.3535522,23.1383 C12.8225522,24.1733 12.0895522,24.2673 11.5855522,23.2293 C10.9145522,21.8463 10.0655522,20.8253 8.59455221,20.2373 C7.79455221,19.9193 7.80155221,18.9173 8.61755221,18.5963 C10.0975522,18.0133 10.9605522,17.0163 11.6025522,15.6023 C12.0535522,14.6073 12.8765522,14.6923 13.3305522,15.6873 C13.8615522,16.8503 14.3975522,17.9253 15.7925522,18.3053 C16.3015522,18.4453 16.7955522,18.8373 16.9125522,19.3673"
                      id="Fill-160" fill="#00A8C4"/>
                <path d="M14.0463522,1.59 C14.0463522,2.468 13.3343522,3.179 12.4573522,3.179 C11.5793522,3.179 10.8673522,2.468 10.8673522,1.59 C10.8673522,0.712 11.5793522,0 12.4573522,0 C13.3343522,0 14.0463522,0.712 14.0463522,1.59"
                      id="Fill-162" fill="#00A8C4"/>
                <path d="M14.0463522,6.3908 C14.0463522,7.2678 13.3343522,7.9798 12.4573522,7.9798 C11.5793522,7.9798 10.8673522,7.2678 10.8673522,6.3908 C10.8673522,5.5128 11.5793522,4.8008 12.4573522,4.8008 C13.3343522,4.8008 14.0463522,5.5128 14.0463522,6.3908"
                      id="Fill-164" fill="#00A8C4"/>
                <path d="M14.0463522,10.8908 C14.0463522,11.7688 13.3343522,12.4808 12.4573522,12.4808 C11.5793522,12.4808 10.8673522,11.7688 10.8673522,10.8908 C10.8673522,10.0128 11.5793522,9.3018 12.4573522,9.3018 C13.3343522,9.3018 14.0463522,10.0128 14.0463522,10.8908"
                      id="Fill-166" fill="#00A8C4"/>
            </g>
        </g>
        <g id="Decoration" transform="translate(220.000000, 171.000000) scale(1 1)" blush:width="24" blush:height="24"
           blush:component="Decoration">
            <g id="Decoration/Flower 1" stroke="none" stroke-width="1" fill="none" fill-rule="evenodd">
                <path d="M16.2877798,11.7530543 C17.7657798,10.1460543 16.9497798,8.63905427 15.3437798,7.84705427 C15.0917798,7.89805427 14.7947798,7.95605427 14.5097798,8.01205427 C14.2277798,7.87305427 13.9607798,7.74105427 13.7017798,7.61305427 C12.5577798,5.13005427 10.1557798,5.79005427 9.23377979,7.72705427 C8.40677979,8.12805427 7.27177979,7.70705427 6.56177979,8.57705427 C6.14177979,9.08505427 5.97877979,9.66705427 6.06077979,10.3440543 C6.13677979,10.9720543 6.64577979,11.4150543 6.70777979,12.0550543 C6.65177979,12.3810543 6.42877979,12.6460543 6.27077979,12.9400543 C5.43677979,14.4960543 6.64577979,16.3420543 8.30877979,16.0940543 C8.42777979,16.0760543 8.54677979,16.0610543 8.58277979,16.0560543 C9.48777979,16.3060543 9.79577979,17.0430543 10.2377798,17.6830543 C10.5947798,17.8030543 10.9797798,17.9000543 11.2747798,18.1440543 C11.8827798,17.9800543 12.4407798,17.8280543 12.9627798,17.6870543 C13.4567798,17.2630543 13.3887798,16.5710543 13.8737798,16.1090543 C14.2467798,16.1080543 14.6657798,16.1120543 15.0857798,16.1050543 C16.2227798,16.0810543 16.8087798,15.5090543 16.8937798,14.3780543 C16.9417798,13.7340543 16.9767798,13.1170543 16.5227798,12.5610543 C16.3657798,12.3670543 16.3667798,12.0450543 16.2877798,11.7530543"
                      id="Fill-14" fill="#4DDEFF"/>
            </g>
        </g>
        <g id="Decoration" transform="translate(174.553800, 33.000000) scale(1 1)" blush:width="24" blush:height="24"
           blush:component="Decoration">
            <g id="Decoration/Flower 2" stroke="none" stroke-width="1" fill="none" fill-rule="evenodd">
                <path d="M15.4708305,12.1787682 C16.5438305,11.0107682 15.9518305,9.91676816 14.7848305,9.34176816 C14.6018305,9.37776816 14.3858305,9.42076816 14.1798305,9.46176816 C13.9748305,9.36076816 13.7808305,9.26476816 13.5928305,9.17176816 C12.7618305,7.36776816 11.0178305,7.84776816 10.3488305,9.25476816 C9.74683046,9.54576816 8.92383046,9.24076816 8.40883046,9.87176816 C8.10283046,10.2417682 7.98483046,10.6627682 8.04383046,11.1557682 C8.09883046,11.6107682 8.46883046,11.9337682 8.51383046,12.3977682 C8.47383046,12.6347682 8.31083046,12.8257682 8.19683046,13.0397682 C7.59083046,14.1707682 8.46883046,15.5117682 9.67583046,15.3307682 C9.76183046,15.3177682 9.84883046,15.3067682 9.87483046,15.3037682 C10.5338305,15.4847682 10.7558305,16.0207682 11.0768305,16.4847682 C11.3358305,16.5717682 11.6168305,16.6427682 11.8298305,16.8197682 C12.2718305,16.6997682 12.6768305,16.5897682 13.0558305,16.4877682 C13.4148305,16.1797682 13.3658305,15.6767682 13.7178305,15.3427682 C13.9888305,15.3417682 14.2928305,15.3447682 14.5978305,15.3377682 C15.4228305,15.3217682 15.8498305,14.9067682 15.9108305,14.0847682 C15.9468305,13.6167682 15.9718305,13.1687682 15.6418305,12.7647682 C15.5278305,12.6247682 15.5288305,12.3907682 15.4708305,12.1787682"
                      id="Fill-7" fill="#F28DFD"/>
            </g>
        </g>
        <g id="Decoration" transform="translate(146.553800, 20.000000) scale(1 1)" blush:width="24" blush:height="24"
           blush:component="Decoration">
            <g id="Decoration/Circle 2" stroke="none" stroke-width="1" fill="none" fill-rule="evenodd">
                <path d="M8.0536631,7.44123475 C10.5326631,5.30123475 14.2766631,5.57623475 16.4156631,8.05423475 C18.5556631,10.5322348 18.2816631,14.2762348 15.8026631,16.4162348 C13.3246631,18.5552348 9.5806631,18.2812348 7.4416631,15.8022348 C5.3016631,13.3252348 5.5756631,9.58123475 8.0536631,7.44123475"
                      id="Fill-37" fill="#FED21C"/>
            </g>
        </g>
        <g id="Decoration" transform="translate(195.553800, 50.000000) scale(1 1)" blush:width="24" blush:height="24"
           blush:component="Decoration">
            <g id="Decoration/Sparkle 3" stroke="none" stroke-width="1" fill="none" fill-rule="evenodd">
                <path d="M16.1781782,12.1013564 C16.1941782,12.4253564 16.0731782,12.5833564 15.8931782,12.7083564 C15.6381782,12.8863564 15.4021782,13.1563564 15.1191782,13.2173564 C13.8271782,13.4973564 13.4241782,14.5673564 12.9121782,15.5613564 C12.4251782,16.5103564 11.7521782,16.5973564 11.2901782,15.6443564 C10.6741782,14.3763564 9.89617817,13.4393564 8.54517817,12.8993564 C7.81117817,12.6073564 7.81817817,11.6883564 8.56717817,11.3933564 C9.92417817,10.8583564 10.7161782,9.94435635 11.3051782,8.64735635 C11.7191782,7.73435635 12.4741782,7.81135635 12.8911782,8.72535635 C13.3781782,9.79135635 13.8701782,10.7783564 15.1501782,11.1263564 C15.6161782,11.2543564 16.0711782,11.6153564 16.1781782,12.1013564"
                      id="Fill-23" fill="#FFFAD9"/>
            </g>
        </g>
        <g id="Decoration" transform="translate(177.553800, 12.000000) scale(1 1)" blush:width="24" blush:height="24"
           blush:component="Decoration">
            <g id="Decoration/Zig Zag 2" stroke="none" stroke-width="1" fill="none" fill-rule="evenodd">
                <path d="M18.8131096,9.26691711 C19.1765895,8.92968784 19.7260561,8.91312527 20.107618,9.21086545 L20.1993057,9.29184479 L24.7060568,13.7852414 C25.0971601,14.1751858 25.0980996,14.8083501 24.7081552,15.1994534 C24.3482065,15.5604719 23.7810173,15.589043 23.3882739,15.2846006 L23.2939432,15.2015518 L19.468,11.387 L15.0655369,15.4720429 C14.7137138,15.7984571 14.185697,15.8254688 13.8047167,15.5532008 L13.7047014,15.4715258 L9.545,11.606 L4.90107231,15.746517 C4.52776944,16.0792397 3.97256488,16.0817252 3.59733952,15.7698569 L3.50749216,15.68535 L-0.728213787,11.184731 C-1.10672216,10.7825496 -1.08753141,10.1496755 -0.685350043,9.77116715 C-0.314105702,9.4217748 0.253705212,9.41125035 0.636571114,9.72802515 L0.728213787,9.81403089 L4.296,13.606 L8.8942269,9.50833238 C9.2472505,9.19368445 9.76657324,9.17254134 10.1417697,9.44168569 L10.2402894,9.52228349 L14.385,13.374 L18.8131096,9.26691711 Z"
                      id="Stroke-35" fill="#FED21C" fill-rule="nonzero"/>
            </g>
        </g>
        <g id="Decoration" transform="translate(104.553800, 30.000000) scale(1 1)" blush:width="24" blush:height="24"
           blush:component="Decoration">
            <g id="Decoration/Flower 3" stroke="none" stroke-width="1" fill="none" fill-rule="evenodd">
                <path d="M15.800624,11.3616494 C16.920624,10.1426494 16.302624,9.00164941 15.084624,8.40064941 C14.893624,8.43864941 14.667624,8.48264941 14.451624,8.52564941 C14.238624,8.42064941 14.035624,8.31964941 13.839624,8.22264941 C12.971624,6.34064941 11.151624,6.84064941 10.451624,8.30964941 C9.824624,8.61364941 8.964624,8.29464941 8.426624,8.95364941 C8.108624,9.33964941 7.984624,9.78064941 8.046624,10.2936494 C8.104624,10.7686494 8.489624,11.1056494 8.536624,11.5906494 C8.494624,11.8386494 8.324624,12.0386494 8.205624,12.2616494 C7.572624,13.4416494 8.489624,14.8416494 9.749624,14.6526494 C9.840624,14.6396494 9.931624,14.6286494 9.958624,14.6246494 C10.645624,14.8136494 10.877624,15.3736494 11.213624,15.8576494 C11.484624,15.9486494 11.776624,16.0226494 11.999624,16.2076494 C12.459624,16.0836494 12.883624,15.9676494 13.279624,15.8606494 C13.654624,15.5396494 13.602624,15.0146494 13.970624,14.6656494 C14.252624,14.6646494 14.571624,14.6676494 14.888624,14.6616494 C15.750624,14.6436494 16.196624,14.2106494 16.260624,13.3516494 C16.296624,12.8646494 16.322624,12.3956494 15.979624,11.9736494 C15.859624,11.8276494 15.860624,11.5836494 15.800624,11.3616494"
                      id="Fill-16" fill="#FED21C"/>
            </g>
        </g>
        <g id="Decoration" transform="translate(29.553800, 42.000000) scale(1 1)" blush:width="24" blush:height="24"
           blush:component="Decoration">
            <g id="Decoration/Dots 1" stroke="none" stroke-width="1" fill="none" fill-rule="evenodd">
                <g id="Group"
                   transform="translate(12.000000, 12.500000) rotate(-270.000000) translate(-12.000000, -12.500000) translate(10.000000, 5.000000)"
                   fill="#FF97FF">
                    <path d="M3.62780185,1.812 C3.62680093,2.811 2.81580093,3.622 1.81580093,3.62100092 C0.815800926,3.62 0.00680092607,2.809 0.0078,1.809 C0.0078,0.809 0.818800926,-1.39888101e-14 1.81880093,-1.39888101e-14 C2.81780093,-1.39888101e-14 3.62880093,0.812 3.62780185,1.812"
                          id="Fill-39"/>
                    <path d="M3.62390185,7.2798 C3.62290093,8.2788 2.81190093,9.0898 1.81190093,9.08880092 C0.811900926,9.0878 0.00290092607,8.2768 0.0039,7.2768 C0.0039,6.2768 0.814900926,5.4678 1.81490093,5.4678 C2.81390093,5.4678 3.62490093,6.2798 3.62390185,7.2798"
                          id="Fill-41"/>
                    <path d="M3.62000185,12.4058 C3.62000185,13.4058 2.80800093,14.2158 1.80800093,14.2148009 C0.808000926,14.2148009 -0.000999073928,13.4028 1.56541446e-13,12.4028 C0.00100092607,11.4028 0.811000926,10.5938 1.81100093,10.5938 C2.81100093,10.5938 3.62100093,11.4058 3.62000185,12.4058"
                          id="Fill-43"/>
                </g>
            </g>
        </g>
        <g id="Medium Decoration" transform="translate(162.553800, 171.000000) scale(1 1)" blush:width="62"
           blush:height="53" blush:component="Medium Decoration">
            <g id="Medium Decoration/Circle 1" stroke="none" stroke-width="1" fill="none" fill-rule="evenodd">
                <path d="M30.4688959,14 C37.3725195,13.9819838 42.9829051,19.5655016 43,26.4693985 C43.0170169,33.3732954 37.4347234,38.9828997 30.5310997,39 C23.6284793,39.0180162 18.0180937,33.4344984 18,26.5306015 C17.9839819,19.6267046 23.5662755,14.0171003 30.4688959,14"
                      id="Fill-31" fill="#F28DFD"/>
            </g>
        </g>
        <g id="Medium Decoration" transform="translate(39.000000, 16.000000) scale(1 1)" blush:width="62"
           blush:height="53" blush:component="Medium Decoration">
            <g id="Medium Decoration/Circle 2" stroke="none" stroke-width="1" fill="none" fill-rule="evenodd">
                <path d="M43.9376,26.7227 C44.0736,33.8847 38.3786,39.8007 31.2166,39.9377 C24.0556,40.0747 18.1386,34.3787 18.0026,27.2167 C17.8656,20.0547 23.5616,14.1387 30.7226,14.0017 C37.8846,13.8667 43.8006,19.5617 43.9376,26.7227"
                      id="Fill-1" fill="#AD5CEE"/>
            </g>
        </g>
    </g>
</svg>
