<svg viewBox="27.72 63 120.96000000000001 103.32" xmlns="http://www.w3.org/2000/svg" xmlns:xlink="http://www.w3.org/1999/xlink" xmlns:blush="http://design.blush" overflow="visible" width="1000.0000000000001px" height="854.1666666666666px"><defs><polygon id="masteravatarsavatar-path-1" points="0.621673968 0.871454627 22.5015 0.871454627 22.5015 9.2273 0.621673968 9.2273"/></defs><g id="Master/Avatars/Avatar" stroke="none" stroke-width="1" fill="none" fill-rule="evenodd" blush:has-customizable-skin="true"><g id="Faces" transform="translate(0.000000, 21.000000) scale(3.5 3.5)" blush:width="171.5" blush:height="171.5" blush:component="Faces"><g id="Faces/Pink Bob" stroke="none" stroke-width="1" fill="none" fill-rule="evenodd"><g id="Group-24" transform="translate(8.000000, 11.000000)"><path d="M28.8135,11.5237 C28.6385,10.6477 28.4215,9.7797 28.0445,8.9717 C26.8865,6.4957 24.1305,4.9197 21.4215,5.0027 C19.9875,5.0447 18.6475,5.0347 17.2535,5.4647 C15.5735,5.9847 14.0075,6.8217 12.5085,7.7287 C8.5035,10.1537 4.6775,13.3767 3.1275,17.7207 C2.6915,18.9407 2.4505,20.2117 2.2105,21.4787 C2.0905,22.1097 1.9715,22.7417 1.8515,23.3727 C1.8005,23.6397 1.7505,23.9167 1.8075,24.1797 C1.9465,24.8187 2.6325,25.1467 3.1345,25.5697 C3.5575,25.9247 3.8775,26.3957 4.0535,26.9177 C4.1195,27.1137 4.1865,27.3407 4.3805,27.4207 C4.5245,27.4797 4.6885,27.4337 4.8455,27.4147 C5.8345,27.2947 6.3285,28.3787 7.2705,28.4817 C7.6985,28.5277 8.2565,28.2777 8.2095,27.8577 C8.3905,29.4837 19.6885,29.4187 20.9985,29.6497 C22.0355,29.8327 25.4435,31.3697 25.2865,29.2077 C25.3665,29.2717 25.6225,29.5507 25.7255,29.5377 C25.9945,29.5027 26.1955,29.5267 26.4385,29.4427 C26.6085,29.3837 26.7375,29.2427 26.8995,29.1617 C27.0845,29.0677 27.3025,29.0707 27.4475,28.9007 C27.5125,28.8257 27.5475,28.7297 27.6085,28.6517 C27.7305,28.4947 28.0215,28.4827 28.1885,28.3787 C28.4835,28.1957 28.5115,27.7937 28.5065,27.4557 C28.8735,27.4697 29.1875,27.6897 29.5125,27.8507 C29.9895,28.0857 30.5295,28.2017 31.0685,28.1847 C31.3055,28.1767 31.5575,28.1377 31.7405,27.9857 C31.9915,27.7767 32.0315,27.3667 31.8235,27.1257 C32.5735,27.0517 33.8485,26.6717 33.0395,25.8137 C32.8725,25.6357 32.6885,25.4647 32.6215,25.2167 C31.8635,23.9857 31.2155,22.7707 30.6665,21.4187 C30.1485,20.1417 29.6295,18.8647 29.1115,17.5877 C28.9095,17.0907 28.8405,16.6757 28.7345,16.1687 C28.6405,15.7157 28.2495,15.3627 28.3085,14.8737 C28.5835,15.2107 28.6315,15.5667 28.8165,15.8517 C29.8915,17.5117 30.2645,19.5667 31.5175,21.1217 C32.0835,21.8247 32.9105,22.5677 33.8915,22.5437 C35.6315,22.4997 33.8755,21.7977 33.2545,21.5417 C31.7095,20.9007 30.9305,19.2707 30.3255,17.8177 C30.0285,17.1077 29.6295,16.3477 29.4235,15.6087 C29.1335,14.5677 29.1545,13.3527 28.9555,12.2687 C28.9095,12.0207 28.8635,11.7717 28.8135,11.5237" id="Fill-1" fill="#9D3188"/><path d="M24.5439,19.7161 C24.2029,20.4671 24.2749,21.4381 24.8449,22.1071 C25.6299,23.0281 27.0179,23.1381 27.9389,22.3531 C28.8589,21.5681 28.9699,20.1801 28.1849,19.2591 C27.6959,18.6851 26.9729,18.4271 26.2739,18.5031 C26.2199,18.3811 26.1679,18.2561 26.1469,18.1301 C26.9939,18.0101 27.8829,18.3111 28.4779,19.0091 C29.4009,20.0911 29.2709,21.7231 28.1889,22.6461 C27.1059,23.5691 25.4749,23.4391 24.5519,22.3561 C23.8969,21.5871 23.7999,20.4981 24.1779,19.6201 L24.5439,19.7161 Z" id="Fill-3" fill="#EFF2F9"/><path d="M19.3989,26.4973 L19.3989,26.4973 C23.8739,26.6553 27.6839,23.2503 27.9359,19.6003 L28.4789,10.9833 C28.7939,6.4073 25.9989,2.4253 21.4369,1.9593 L21.4359,1.9593 C16.7659,1.4823 11.1989,4.7793 10.7219,9.4503 L10.3609,16.3853 C10.0819,21.7493 14.0559,25.9513 19.3989,26.4973" id="Fill-9" fill="#7362A5" blush:skin="500"/><path d="M6.1772,16.4133 C5.9812,18.3283 7.3752,20.0393 9.2902,20.2343 C11.2052,20.4313 12.9152,19.0363 13.1112,17.1223 C13.3062,15.2073 11.9132,13.4963 9.9982,13.3013 C8.0832,13.1053 6.3722,14.4993 6.1772,16.4133" id="Fill-11" fill="#7362A5" blush:skin="500"/><path d="M9.751,17.8899 C9.751,17.8899 10.008,15.3759 7.564,15.5269" id="Fill-13" fill="#CABFE2"/><path d="M9.5625,20.8323 C9.3095,21.5483 8.6425,22.1453 7.8375,22.2263 C6.7295,22.3353 5.7395,21.5223 5.6295,20.4153 C5.5195,19.3073 6.3315,18.3153 7.4395,18.2053 C8.1305,18.1373 8.7745,18.4283 9.1885,18.9243 C9.3035,18.8773 9.4175,18.8273 9.5115,18.7583 C9.0265,18.1373 8.2445,17.7693 7.4045,17.8533 C6.1025,17.9823 5.1475,19.1463 5.2765,20.4493 C5.4055,21.7523 6.5705,22.7073 7.8735,22.5783 C8.7985,22.4863 9.5575,21.8253 9.8665,21.0023 L9.5625,20.8323 Z" id="Fill-15" fill="#EFF2F9"/><path d="M27.2876,6.7571 L27.2866,6.7551 C27.2866,6.7561 27.2866,6.7561 27.2866,6.7561 C27.2876,6.7561 27.2876,6.7561 27.2876,6.7571" id="Fill-17" fill="#F0B8D1"/><path d="M19.9053,8.1604 L19.9063,8.1594 C19.9063,8.1594 19.9053,8.1594 19.9053,8.1604" id="Fill-19" fill="#F0B8D1"/><g id="Group-23" transform="translate(0.000000, 0.060200)" fill="#E252C5"><path d="M10.6676,22.9708 C10.6266,23.5608 10.5546,24.1498 10.4926,24.7398 C10.4836,24.8258 10.4896,24.9588 10.3676,24.9488 C10.2416,24.9388 10.2826,24.8038 10.2796,24.7218 C10.2426,23.7048 10.2636,22.6858 10.3286,21.6748 C10.3906,20.7198 10.4416,19.7628 10.5816,18.8118 C10.6986,18.0268 10.7466,17.2318 10.8516,16.4448 C10.8986,16.0888 10.9256,15.7208 11.1036,15.3178 C11.1956,15.5588 11.2246,15.7328 11.2176,15.9058 C11.1916,16.6008 11.1806,17.2988 11.1196,17.9918 C10.9736,19.6518 10.7826,21.3068 10.6676,22.9708 Z M16.1106,0.9468 C15.7026,0.9598 14.7876,1.1008 13.8636,1.2998 C11.9936,1.4398 10.1966,2.5598 8.8486,3.8068 C7.0746,5.4508 5.6916,7.5388 4.6956,9.7338 C3.6036,12.1428 0.2326,22.9288 0.1046,23.4128 C-0.0154,23.8668 -0.0514,24.3698 0.0996,24.8208 C0.2366,25.2288 0.6436,25.7798 1.0986,25.8468 C1.6516,25.9278 1.7386,25.3158 1.8636,24.9268 C2.0216,24.4328 2.2116,23.9558 2.4116,23.4778 C2.6016,23.0208 2.7006,22.5528 2.9576,22.1118 C3.0106,22.0868 3.0766,22.1278 3.0986,22.1818 C3.1216,22.2368 3.1126,22.2988 3.1006,22.3568 C3.0326,22.6858 2.8956,22.9958 2.7686,23.3068 C2.4276,24.1468 2.1586,25.0168 1.9656,25.9038 C1.9196,26.1138 1.8786,26.3288 1.8956,26.5438 C1.9286,26.9508 2.1686,27.3128 2.4416,27.6178 C2.5836,27.7778 2.7476,27.9338 2.9556,27.9838 C3.6086,28.1378 3.6236,27.1468 3.7256,26.7488 C3.8976,26.0798 4.1046,25.4198 4.2716,24.7498 C4.4996,23.8318 4.7786,22.9278 5.0186,22.0128 C5.4806,20.2518 6.0256,18.5128 6.7116,16.8258 C6.7456,16.7418 6.7976,16.6658 6.8766,16.5208 C6.8856,16.8088 6.8546,17.0228 6.7976,17.2368 C6.5846,18.0398 6.3226,18.8278 6.0956,19.6258 C5.7046,21.0008 5.3616,22.3888 4.9846,23.7678 C4.7946,24.4608 4.5986,25.1518 4.4016,25.8428 C4.2376,26.4188 3.8686,27.1588 3.9636,27.7548 C4.0776,28.4678 4.5396,29.0378 5.1486,29.3948 C5.4266,29.5578 5.7326,29.7318 6.0896,29.5378 C6.1856,29.4858 6.2436,29.4228 6.2376,29.2988 C6.1756,28.0998 6.3356,26.9118 6.5216,25.7188 C6.7876,24.0178 7.1696,22.3468 7.6456,20.6898 C7.6836,20.5578 7.7236,20.4278 7.7636,20.2968 C8.1456,19.0388 8.6136,17.8128 9.1396,16.6108 C9.1266,17.0948 9.1126,17.5778 9.0986,18.0608 C9.0566,19.6348 8.9866,21.2068 8.9776,22.7788 C8.9696,24.3328 9.1546,25.8728 9.4256,27.4028 C9.4446,27.5128 9.4446,27.6258 9.4526,27.7368 C9.4646,27.8078 9.4756,27.8798 9.4876,27.9508 C9.6456,28.1118 9.6286,28.3448 9.7246,28.5378 C9.9026,28.8938 10.1756,29.1878 10.3336,29.5518 C10.3486,29.5578 10.3556,29.5698 10.3556,29.5868 C10.3936,29.6198 10.4306,29.6538 10.4696,29.6868 C10.6086,29.8048 10.7366,29.9558 10.9516,29.8598 C11.1956,29.7508 11.1596,29.5358 11.0926,29.3618 C10.8916,28.8408 10.7516,28.3048 10.6686,27.7478 C10.7876,28.0798 11.0086,28.3568 11.1396,28.6818 C11.2376,28.7908 11.3756,28.8688 11.3936,29.0348 C11.4176,29.0568 11.4406,29.0808 11.4636,29.1028 C11.7226,29.2768 11.9746,29.3088 12.2236,29.0618 C12.2226,28.7038 12.2586,28.3458 12.1866,27.9888 C12.0166,27.1558 12.1346,26.2608 12.1496,25.4158 C12.1706,24.2678 12.5116,23.3048 12.7566,22.2208 C13.0266,21.0248 12.7836,19.7238 12.6796,18.5228 C12.4236,15.5758 12.9076,12.8488 13.4176,9.9718 C13.5696,9.1188 13.4146,8.7938 14.3506,8.5748 C14.9106,8.44413333 16.439817,8.41356966 18.938251,8.48310899 C19.0611503,7.64823633 19.2612667,7.12913333 19.5386,6.9258 C19.7256,7.1648 19.9462409,8.08908986 20.0470815,8.3778 C20.2018124,8.8208 23.1986,9.0288 23.2926,8.5997 C23.3866,8.1706 22.7496,6.5478 22.4346,5.8388 C22.4066,5.7748 22.3226,5.7098 22.4046,5.6108 C22.8796,6.0148 23.0566,6.5838 23.2926,7.1238 C23.6976,8.0448 23.6006,8.8398 24.8046,9.0498 C25.2336,9.1248 25.6886,9.1358 26.0676,9.3488 C26.3166,9.4908 26.5186,9.7148 26.7886,9.8108 C27.3096,9.9998 27.5186,9.5498 27.4916,9.1178 C27.4366,8.2408 27.3056,7.4138 26.7086,6.6758 C26.0996,5.9218 25.8816,5.1528 26.1856,5.4398 C27.0566,6.2628 27.9446,7.0738 28.0716,8.3778 C28.1286,8.9648 28.0456,9.5058 27.8826,10.0638 C28.6886,10.5178 29.2386,9.4748 29.3646,8.8208 C29.4146,8.5618 29.4436,8.3118 29.4536,8.0708 C29.5876,4.5978 25.7046,2.9258 22.8466,2.0588 C20.6686,1.3998 18.4006,0.8728 16.1106,0.9468 Z" id="Fill-21"/></g></g></g></g><g id="Expression" transform="translate(59.500000, 87.500000) scale(3.5 3.5)" blush:width="84" blush:height="70" blush:component="Expression"><defs><polygon id="expressionexcited-path-1" points="0.626723631 0.451655971 4.079 0.451655971 4.079 3.43406473 0.626723631 3.43406473"/></defs><g id="Expression/Excited" stroke="none" stroke-width="1" fill="none" fill-rule="evenodd"><g id="Group-38" transform="translate(12.000000, 8.500000) rotate(6.000000) translate(-12.000000, -8.500000) translate(4.500000, 2.500000)"><path d="M7.96304222,6.50871012 C8.05904222,6.64671012 8.15904222,6.77971012 8.25404222,6.91671012 C8.36904222,7.08571012 8.46404222,7.26171012 8.56104222,7.44171012 C8.57004222,7.46071012 8.56704222,7.45271012 8.55104222,7.41671012 C8.55604222,7.42871012 8.56104222,7.44071012 8.56504222,7.45271012 C8.57104222,7.46971012 8.57704222,7.48771012 8.58304222,7.50471012 C8.58904222,7.52671012 8.59404222,7.54871012 8.60004222,7.57071012 C8.61604222,7.63071012 8.58504222,7.56771012 8.59904222,7.55471012 C8.59904222,7.55571012 8.59904222,7.61071012 8.60004222,7.61171012 C8.59104222,7.60171012 8.62004222,7.52871012 8.60204222,7.58471012 C8.58804222,7.62571012 8.64604222,7.51471012 8.60404222,7.57071012 C8.59704222,7.58271012 8.58904222,7.59371012 8.58104222,7.60571012 C8.59904222,7.58371012 8.59704222,7.58571012 8.57504222,7.61171012 C8.55604222,7.63171012 8.53804222,7.65271012 8.51804222,7.67071012 C8.51004222,7.67871012 8.42904222,7.74471012 8.47104222,7.71371012 C8.41804222,7.75271012 8.36204222,7.78671012 8.30404222,7.81771012 C8.27904222,7.83071012 8.25404222,7.84371012 8.22804222,7.85671012 C8.21904222,7.86071012 8.12004222,7.90471012 8.16804222,7.88471012 C8.10604222,7.90971012 8.04404222,7.93271012 7.98204222,7.95471012 C7.83904222,8.00571012 7.72804222,8.15471012 7.77804222,8.31271012 C7.82404222,8.45271012 7.98304222,8.57071012 8.13604222,8.51571012 C8.43604222,8.40871012 8.74704222,8.28071012 8.96704222,8.04271012 C9.08004222,7.92271012 9.16804222,7.79171012 9.18004222,7.62471012 C9.18804222,7.52471012 9.16704222,7.41871012 9.13504222,7.32371012 C8.99504222,6.91071012 8.71204222,6.56771012 8.46504222,6.21571012 C8.37504222,6.08671012 8.21104222,6.02771012 8.06704222,6.11171012 C7.94004222,6.18571012 7.87204222,6.37971012 7.96304222,6.50871012" id="Fill-1" fill-opacity=".18" fill="#00023C"/><path d="M5.3437,1.6514 C6.2347,1.2264 5.7807,-0.1466 4.8067,0.0124 C3.9577,0.1524 2.9277,0.4864 2.5127,1.2824 C1.7537,2.7404 4.3537,2.0944 5.3157,1.6644 C5.3247,1.6604 5.3347,1.6554 5.3437,1.6514" id="Fill-3" fill="#2C2263"/><path d="M10.2089,1.8331 C9.4439,1.5211 9.7579,0.3511 10.5799,0.4371 C11.2959,0.5131 12.1729,0.7431 12.5589,1.3891 C13.2639,2.5711 11.0579,2.1561 10.2329,1.8431 C10.2249,1.8401 10.2169,1.8371 10.2089,1.8331" id="Fill-5" fill="#2C2263"/><path d="M3.7079,3.4717 C3.7579,3.4647 3.8089,3.4577 3.8589,3.4517 C4.6979,3.3597 5.5799,3.7107 6.2249,4.2307 C6.3979,4.3687 6.4829,4.5637 6.4499,4.8007 C6.4069,5.1087 6.2359,5.2077 5.9919,5.0067 C5.3349,4.4627 4.5759,4.3597 3.7609,4.3927 C3.3519,4.4087 3.0059,4.5457 2.6929,4.7877 C2.4549,4.9717 2.2349,5.1807 1.9989,5.3667 C1.8309,5.4977 1.6259,5.5727 1.4439,5.4227 C1.2459,5.2607 1.2859,5.0497 1.4039,4.8427 C1.8749,4.0207 2.7969,3.6047 3.7079,3.4717" id="Fill-7" fill="#2C2263"/><path d="M12.5356,5.0889 C11.8676,4.5539 10.9916,3.9529 10.1206,4.3719 C9.6676,4.5899 9.2986,5.0129 8.8336,5.1899 C8.6536,5.2579 8.4466,5.2969 8.3056,5.1379 C8.1586,4.9719 8.2546,4.8109 8.3626,4.6329 C8.8286,3.8639 9.6276,3.5209 10.4826,3.4049 C11.3736,3.2849 12.2286,3.7169 12.8766,4.3239 C13.1516,4.7789 13.0766,4.9489 12.5356,5.0889" id="Fill-9" fill="#2C2263"/><path d="M9.331,11.1504 C9.552,11.1124 9.983,10.6704 9.914,10.5284 C9.797,10.2914 9.552,10.2754 9.335,10.3054 C8.915,10.3654 9.205,10.7214 9.096,10.8854 C9.13,11.0454 9.144,11.1814 9.331,11.1504 M8.214,10.3814 C7.664,10.4974 7.927,10.9144 7.927,11.1954 C7.927,11.6164 8.278,11.3964 8.472,11.4014 C8.921,11.4124 8.751,11.0914 8.721,10.7904 C8.727,10.5144 8.628,10.2964 8.214,10.3814 M6.564,9.8894 C6.535,9.8974 6.503,9.9104 6.482,9.9304 C6.283,10.1294 6.441,10.9864 6.697,11.0994 C6.741,11.1184 6.788,11.1294 6.833,11.1434 C7.036,11.2124 7.26,11.4334 7.445,11.2664 C7.623,11.1034 7.483,10.8154 7.501,10.6054 C7.466,10.3954 6.73,9.8474 6.564,9.8894 M6.011,10.1014 C6.031,9.5314 5.406,9.0784 4.856,9.2874 C4.643,9.3684 4.603,9.5384 4.717,9.7544 C4.935,10.1654 5.472,10.5814 6.019,10.7124 C6.016,10.4834 6.005,10.2924 6.011,10.1014 M4.351,10.2474 C4.061,9.9404 3.901,9.5644 4.163,9.1544 C4.409,8.7694 4.806,8.7704 5.195,8.8324 C5.674,8.9074 6.109,9.1084 6.52,9.3644 C7.181,9.7764 7.886,9.9704 8.673,9.8164 C8.968,9.7584 9.276,9.7474 9.579,9.7444 C9.965,9.7404 10.267,9.9054 10.4,10.2864 C10.539,10.6814 10.34,10.9884 10.053,11.2094 C9.644,11.5234 9.184,11.7524 8.651,11.8334 C7.002,11.8964 5.522,11.4834 4.351,10.2474" id="Fill-11" fill="#2C2263"/><path d="M6.019,10.712 C6.016,10.483 6.005,10.292 6.011,10.102 C6.031,9.531 5.406,9.078 4.856,9.287 C4.643,9.368 4.603,9.538 4.717,9.754 C4.935,10.165 5.472,10.581 6.019,10.712" id="Fill-13" fill="#FDFDFD"/><path d="M7.5009,10.6055 C7.4659,10.3955 6.7299,9.8475 6.5639,9.8895 C6.5349,9.8975 6.5029,9.9105 6.4819,9.9305 C6.2829,10.1295 6.4409,10.9865 6.6969,11.0995 C6.7409,11.1185 6.7879,11.1285 6.8329,11.1435 C7.0359,11.2115 7.2599,11.4335 7.4449,11.2665 C7.6239,11.1035 7.4829,10.8155 7.5009,10.6055" id="Fill-15" fill="#FDFDFD"/><path d="M8.7211,10.7901 C8.7271,10.5151 8.6281,10.2961 8.2141,10.3821 C7.6641,10.4971 7.9271,10.9141 7.9271,11.1951 C7.9271,11.6161 8.2781,11.3961 8.4721,11.4011 C8.9211,11.4121 8.7511,11.0921 8.7211,10.7901" id="Fill-17" fill="#FDFDFD"/><path d="M9.0956,10.8858 C9.1296,11.0448 9.1436,11.1818 9.3306,11.1508 C9.5526,11.1128 9.9826,10.6698 9.9136,10.5288 C9.7966,10.2908 9.5526,10.2758 9.3346,10.3058 C8.9156,10.3648 9.2046,10.7218 9.0956,10.8858" id="Fill-19" fill="#FDFDFD"/><path d="M3.8451,8.4903 C3.5851,8.8543 3.1751,9.1073 2.7371,9.2123 C2.2321,9.3323 1.6941,9.2673 1.2051,9.0923 C0.8861,8.9763 0.5751,8.8093 0.3521,8.5523 C-0.0329,8.1103 -0.0589,7.2973 0.0701,6.7473 C0.1471,6.4183 0.3371,6.1033 0.6321,5.9373 C1.0641,5.6913 1.5341,5.6733 2.0081,5.7613 C2.4271,5.8383 2.8511,5.9273 3.2251,6.1313 C3.9701,6.5393 4.3671,7.5363 3.9541,8.3143 C3.9221,8.3763 3.8851,8.4343 3.8451,8.4903" id="Fill-21" fill-opacity=".5" fill="#FF37B8"/><path d="M0.7489,7.8379 C0.6979,7.8379 0.6459,7.8219 0.6019,7.7899 C0.4899,7.7079 0.4659,7.5519 0.5469,7.4409 L1.2049,6.5409 C1.2869,6.4289 1.4429,6.4069 1.5539,6.4859 C1.6649,6.5679 1.6889,6.7249 1.6079,6.8359 L0.9509,7.7349 C0.9019,7.8029 0.8259,7.8379 0.7489,7.8379" id="Fill-23" fill="#FFD0F6"/><path d="M2.6523,8.5889 L2.6383,8.5889 C2.5003,8.5809 2.3953,8.4629 2.4023,8.3249 L2.4653,7.2129 C2.4723,7.0749 2.5763,6.9719 2.7283,6.9769 C2.8663,6.9849 2.9713,7.1029 2.9643,7.2399 L2.9023,8.3529 C2.8943,8.4859 2.7843,8.5889 2.6523,8.5889" id="Fill-25" fill="#FFD0F6"/><path d="M1.5287,8.3077 C1.4897,8.3077 1.4507,8.2987 1.4147,8.2807 C1.2917,8.2167 1.2427,8.0667 1.3067,7.9437 L1.8867,6.8137 C1.9497,6.6907 2.1007,6.6427 2.2237,6.7047 C2.3467,6.7687 2.3947,6.9187 2.3317,7.0417 L1.7507,8.1717 C1.7067,8.2577 1.6187,8.3077 1.5287,8.3077" id="Fill-27" fill="#FFD0F6"/><g id="Group-31" transform="translate(10.000000, 5.839600)"><mask id="expressionexcited-mask-2" fill="#fff"><use xlink:href="#expressionexcited-path-1"/></mask><g id="Clip-30"/><path d="M0.8578,2.7786 C1.0758,3.0836 1.4188,3.2956 1.7858,3.3826 C2.2088,3.4836 2.6598,3.4286 3.0688,3.2816 C3.3368,3.1856 3.5968,3.0456 3.7838,2.8306 C4.1068,2.4606 4.1288,1.7786 4.0208,1.3176 C3.9558,1.0426 3.7958,0.7796 3.5498,0.6386 C3.1878,0.4336 2.7938,0.4186 2.3968,0.4916 C2.0458,0.5556 1.6908,0.6316 1.3778,0.8016 C0.7528,1.1436 0.4198,1.9786 0.7668,2.6316 C0.7938,2.6826 0.8238,2.7316 0.8578,2.7786" id="Fill-29" fill-opacity=".5" fill="#FF37B8" mask="url(#expressionexcited-mask-2)"/></g><path d="M13.4516,8.1124 C13.3746,8.1124 13.2986,8.0774 13.2496,8.0094 L12.6996,7.2564 C12.6186,7.1444 12.6426,6.9884 12.7536,6.9064 C12.8656,6.8264 13.0216,6.8484 13.1036,6.9614 L13.6536,7.7154 C13.7346,7.8264 13.7106,7.9824 13.5986,8.0644 C13.5546,8.0964 13.5026,8.1124 13.4516,8.1124" id="Fill-32" fill="#FFD0F6"/><path d="M11.8568,8.7403 C11.7248,8.7403 11.6148,8.6373 11.6068,8.5043 L11.5558,7.5723 C11.5478,7.4343 11.6528,7.3163 11.7918,7.3083 C11.9318,7.3053 12.0468,7.4073 12.0548,7.5453 L12.1068,8.4763 C12.1138,8.6143 12.0088,8.7323 11.8708,8.7403 L11.8568,8.7403 Z" id="Fill-34" fill="#FFD0F6"/><path d="M12.7982,8.5059 C12.7082,8.5059 12.6202,8.4559 12.5762,8.3699 L12.0902,7.4239 C12.0262,7.3009 12.0742,7.1509 12.1972,7.0869 C12.3202,7.0269 12.4712,7.0719 12.5342,7.1949 L13.0202,8.1419 C13.0842,8.2649 13.0352,8.4149 12.9122,8.4789 C12.8762,8.4969 12.8372,8.5059 12.7982,8.5059" id="Fill-36" fill="#FFD0F6"/></g></g></g></g></svg>