<svg viewBox="82.45499999999998 9.42770034843204 72.89500000000007 127.69163763066204" xmlns="http://www.w3.org/2000/svg" xmlns:xlink="http://www.w3.org/1999/xlink" xmlns:blush="http://design.blush" overflow="visible" width="570.8674534415721px" height="1000px"><g id="Master/Stickers/Tree" stroke="none" stroke-width="1" fill="none" fill-rule="evenodd"><g id="Plant" transform="translate(83.000000, 8.000000)"><path d="M16.037098,69.77653 C13.3260784,68.0722967 10.2214314,67.0001633 7.03662745,66.6747967 C5.56660784,66.5228633 3.95917647,66.5658633 2.77829412,67.45883 C2.52780392,67.64803 2.28590196,67.92753 2.34172549,68.23713 C2.38180392,68.4635967 2.57360784,68.62843 2.75682353,68.7688967 C6.41827451,71.5667633 11.9591176,71.9193633 16.037098,69.77653" id="Fill-32" fill="#8A60E2"/><path d="M15.8063608,69.5218267 C13.7680863,67.9293933 11.7197922,66.3269267 9.99212549,64.4005267 C8.2658902,62.4726933 6.86457647,60.1850933 6.34928235,57.6495267 C6.19183137,56.88126 6.14316471,56.0011933 6.63698824,55.3920267 C11.2703412,59.0154933 14.9103216,63.70106 15.8063608,69.5218267" id="Fill-34" fill="#8A60E2"/><path d="M15.9895765,69.7177633 C15.6403216,67.17933 15.5157922,64.56923 16.0969294,62.0737967 C16.679498,59.5783633 18.0350078,57.19043 20.1634588,55.76713 C20.9650275,57.6404967 20.6186353,59.80053 20.0561059,61.7584633 C19.1829686,64.7870967 17.8160078,67.66953 16.0239294,70.25813" id="Fill-36" fill="#643ABC"/><path d="M20.5324667,77.8684133 C17.7742118,78.2038133 15.3738,79.6586467 13.3140549,81.52628 C11.2557412,83.39248 9.79144706,85.9094133 9.1845451,88.6241467 C11.8898392,88.45788 14.1843294,86.5472467 15.8490157,84.4058467 C17.513702,82.2630133 18.6659569,79.91378 20.495251,77.90998" id="Fill-38" fill="#643ABC"/><path d="M21.519398,79.1968267 C19.2979078,73.7186267 20.1023392,67.11526 23.574849,62.3322267 C25.1450647,67.9293933 24.5696529,74.2503933 21.519398,79.1968267" id="Fill-40" fill="#8A60E2"/><path d="M27.5215725,86.32852 C25.018102,86.17372 22.4745529,86.77142 20.300298,88.02272 C18.1289059,89.2754533 16.3353961,91.17892 15.2117686,93.42352 C15.0600431,93.72882 14.9240627,94.1186867 15.128749,94.39102 C15.3062392,94.62752 15.6497686,94.6504533 15.9446314,94.63182 C18.3708078,94.4741533 20.5207294,93.03652 22.2956314,91.37242 C24.069102,89.7068867 25.6149843,87.76042 27.5759647,86.3213533" id="Fill-42" fill="#8A60E2"/><path d="M27.3300549,85.93937 C26.0389569,81.80277 25.9588,77.2949367 27.1010353,73.1153367 C27.5519176,71.4641367 28.3105451,69.7255033 29.8335255,68.9515033 C29.9637804,68.8870033 30.1155059,68.8282367 30.2514863,68.8798367 C30.3817412,68.92857 30.4576039,69.06187 30.5162902,69.18657 C31.057349,70.3203367 31.2162314,71.6089033 31.1604078,72.8645033 C31.1045843,74.1215367 30.8440745,75.3585033 30.5835647,76.5897367 C30.1040549,78.8644367 29.8492706,81.3111367 28.6025451,83.2748033 C28.3076824,83.7406367 28.0457412,84.2437367 27.8095647,84.7425367 C27.5733882,85.24277 27.5719569,85.4176367 27.3558196,85.81467" id="Fill-44" fill="#643ABC"/><path d="M43.2177176,88.3091 C42.0411294,83.8256333 43.2907176,78.3904333 46.1105216,74.7153667 C46.319502,74.4430333 46.5943255,74.1535 46.9349922,74.1850333 C47.4545804,74.2337667 47.5891294,74.9260667 47.5647961,75.4478 C47.3615412,80.0316 45.835698,84.5451667 43.2177176,88.3091" id="Fill-46" fill="#8A60E2"/><path d="M44.6505216,89.29036 C50.0911686,90.7064933 56.3305216,89.32906 60.8550902,85.9893933 C58.1741294,84.62916 55.0136588,84.2407267 52.0822078,84.9115267 C49.1536196,85.5823267 46.4740902,86.8966933 44.6505216,89.29036" id="Fill-48" fill="#8A60E2"/><path d="M45.8583137,86.3047267 C48.9057059,81.3296267 54.7457059,78.08456 60.5656667,77.7892933 C59.8957843,80.1585933 57.950549,82.0004267 55.7562549,83.1141267 C53.5605294,84.2278267 51.111451,84.7122933 48.6952941,85.1824267 C47.7563137,85.36446 46.4680784,85.5651267 45.8583137,86.3047267" id="Fill-50" fill="#643ABC"/><path d="M43.5210255,71.8425367 C44.3454961,69.0117033 45.1742608,66.1565033 45.401849,63.2167367 C45.6294373,60.2784033 45.2100451,57.2082033 43.6856333,54.6855367 C40.8400647,60.19957 40.5523588,66.6424033 43.4351431,72.1378033" id="Fill-52" fill="#8A60E2"/><path d="M53.1017745,66.96863 C56.4297157,60.9113633 63.2201471,56.07243 70.0907353,55.3958967 C67.4412647,62.0035633 60.2128333,67.11053 53.1017745,66.96863" id="Fill-54" fill="#643ABC"/><path d="M51.0078196,68.1557167 C55.9718196,68.9125167 60.2015255,72.08735 64.8391725,74.0108833 C65.8296824,74.42225 66.9017804,74.7519167 67.9667216,74.61145 C69.0302314,74.4709833 70.0808588,73.75575 70.3184667,72.7079833 C70.5174275,71.8365167 70.1223686,70.91345 69.4982902,70.2756167 C68.8742118,69.6377833 68.0497412,69.2393167 67.226702,68.89675 C62.1753882,66.78975 56.7576431,66.7367167 51.4358,68.0138167" id="Fill-56" fill="#8A60E2"/><path d="M48.1367725,71.64101 C49.2604,71.9649433 49.6440078,72.5468767 50.5343216,73.30511 C53.5516549,75.8793767 57.1730275,77.74271 61.0219882,78.7001767 C61.4213412,78.80051 61.9466549,78.83921 62.1456157,78.47801 C62.3202431,78.1612433 62.0998118,77.77711 61.8750863,77.4947433 C60.2633608,75.4751767 57.9631451,74.0934433 55.5426941,73.1904433 C53.1222431,72.2874433 51.0252824,71.1995433 48.1367725,71.4331767" id="Fill-58" fill="#8A60E2"/><path d="M44.8951431,50.6112867 C48.9301824,54.3852533 54.6155941,56.3202533 60.1120647,55.7956533 C60.3625549,55.77272 60.6345157,55.7325867 60.804849,55.5462533 C61.1884569,55.1291533 60.7289863,54.4855867 60.282398,54.1372867 C55.8079275,50.6442533 50.388751,49.1965867 44.8951431,50.6112867" id="Fill-60" fill="#8A60E2"/><path d="M48.7378059,49.1793867 C54.0739627,45.17322 61.3897078,43.96492 67.7263941,46.04182 C65.336002,48.4010867 62.016649,49.67102 58.6772569,50.01932 C55.3378647,50.36762 51.9941784,49.9963867 48.7378059,49.1793867" id="Fill-62" fill="#643ABC"/><path d="M47.2099588,39.5043867 C46.7705275,35.0323867 47.056802,31.50352 46.7461941,27.01002 C46.7218608,26.6516867 46.6445667,26.21882 46.3096255,26.0912533 C45.842998,25.9106533 45.4522333,26.48542 45.3005078,26.9612867 C43.9693314,31.10362 44.6964686,35.8522533 47.2042333,39.40692" id="Fill-64" fill="#643ABC"/><path d="M46.8899039,40.02225 C49.9158255,38.14745 52.1859824,35.70075 54.2858059,32.82405 C55.7472373,30.8216833 56.979649,28.4237167 56.6461392,25.96555 C54.5964137,25.9254167 52.6454529,27.0591833 51.3114137,28.6200833 C49.9759431,30.1809833 49.1843941,32.13175 48.5903745,34.0997167 C47.9977863,36.0676833 47.5841196,38.0886833 46.8899039,40.02225" id="Fill-66" fill="#8A60E2"/><path d="M54.1571255,37.97588 C60.8001255,35.51628 66.9965373,31.85698 72.3613216,27.2273133 C70.1856353,26.3515467 67.6964784,26.8761467 65.5222235,27.7533467 C60.5567922,29.76288 56.498851,33.15128 54.0626549,37.92858" id="Fill-68" fill="#643ABC"/><path d="M48.9320431,42.4690933 C52.2943373,42.83746 55.7067294,43.0768267 59.0403961,42.5178267 C62.3182392,41.9702933 65.4157294,40.6688267 68.4774353,39.3788267 C68.7307882,39.27276 69.0070431,39.14376 69.1201216,38.8914933 C69.2403569,38.6162933 69.1115333,38.28376 68.8882392,38.08166 C68.6678078,37.8824267 68.3715137,37.78496 68.0838078,37.7046933 C64.7558667,36.7715933 61.1616902,37.20876 57.8867098,38.3152933 C54.610298,39.4218267 51.9250431,40.73476 48.9320431,42.4690933" id="Fill-70" fill="#8A60E2"/><path d="M29.7440647,50.7401433 C27.4510059,46.1061767 27.5998686,40.69821 29.5808882,35.92091 C30.9750451,38.04941 31.1453784,40.7569767 30.8905941,43.2896767 C30.6358098,45.8209433 29.8657314,48.4267433 29.8156333,50.97091" id="Fill-72" fill="#643ABC"/><path d="M20.5855706,46.1139167 C14.8615118,46.0049833 9.1345902,48.4473833 5.24698235,52.65565 C8.20562941,53.1229167 10.9467078,52.4177167 13.6448451,51.09905 C16.245649,49.8276833 18.5544529,48.0446167 20.8432176,46.2730167" id="Fill-74" fill="#8A60E2"/><path d="M14.4268039,44.0520667 C11.6270392,43.8256 8.93176471,43.4787333 6.23935294,44.3043333 C3.54694118,45.1299333 1.09643137,47.0061667 -2.03392858e-13,49.6019333 C2.61798039,49.8972 5.27317647,49.2407333 7.67501961,48.1499667 C10.0754314,47.0620667 12.2582745,45.5527667 14.4268039,44.0520667" id="Fill-76" fill="#643ABC"/><path d="M23.5447902,44.14595 C21.0255745,42.4933167 18.4390843,40.83495 15.5047706,40.1498167 C12.5718882,39.4646833 9.17237843,39.9462833 7.12694706,42.1607833 C9.50159412,43.55685 12.3829471,43.72025 15.1354765,43.7188167 C17.8894373,43.71595 21.2631824,43.68585 23.8596922,44.6046167" id="Fill-78" fill="#8A60E2"/><path d="M23.5601059,44.2802533 C19.2516745,40.0447533 17.6199098,32.43662 19.353302,26.6473867 C22.738498,31.7973533 24.2528902,38.1527533 23.5601059,44.2802533" id="Fill-80" fill="#643ABC"/><path d="M35.4025667,32.2803867 C36.2141549,30.38982 36.7867039,28.4046533 37.5152725,26.4796867 C38.2424098,24.55472 39.1484686,22.6612867 40.525449,21.1333533 C41.9024294,19.60542 43.8075863,18.4673533 45.8601745,18.3655867 C44.574802,24.1920867 40.7100961,29.3993867 35.5070569,32.3104867" id="Fill-82" fill="#643ABC"/><path d="M33.2596588,34.80549 C31.9156,32.95219 30.3625608,30.4381233 28.5389922,29.0549567 C26.7168549,27.67179 24.3436392,26.8347233 22.1192863,27.36649 C24.3808549,31.41709 28.6549333,34.2708567 33.2596588,34.80549" id="Fill-84" fill="#8A60E2"/><path d="M33.6873529,32.4343267 C32.8070588,30.1940267 31.9196078,27.9264933 31.5631961,25.5442933 C31.2067843,23.1620933 31.4243529,20.6179267 32.6410196,18.5395933 C35.0042157,23.01446 35.7657059,27.81756 33.8090196,32.4859267" id="Fill-86" fill="#643ABC"/><path d="M35.4234647,18.53902 C36.7632294,14.10142 40.8197392,10.8362867 45.1997392,9.33702 C45.752249,9.14782 46.336249,8.99158667 46.9130922,9.07902 C47.4899353,9.16932 48.0553275,9.56348667 48.1755627,10.13682 C48.3358765,10.8907533 47.7132294,11.5672867 47.127798,12.06752 C43.7182686,14.98722 39.7089941,17.2045867 35.4234647,18.53902" id="Fill-88" fill="#643ABC"/><path d="M35.4724176,14.9109667 C35.642751,12.0500333 35.8202412,9.14753333 36.7506333,6.43853333 C37.6781627,3.7281 39.4702412,1.1868 42.0739078,-4.08562073e-14 C42.5176333,2.88816667 41.2437118,5.7878 39.7092804,8.2732 C38.174849,10.7600333 36.3240843,13.0820333 35.4022804,15.8541" id="Fill-90" fill="#8A60E2"/><path d="M35.4025667,16.8803667 C34.2961157,13.6467667 34.1801745,9.54026667 32.2478216,6.72376667 C30.8966059,4.75436667 28.7323706,3.41276667 27.5672333,1.32726667 C26.7942922,3.27516667 27.0304686,5.51976667 27.8406255,7.45333333 C28.6479196,9.38546667 29.9862529,11.0739333 31.4161941,12.6047333 C32.8475667,14.1341 34.0713902,15.2607 35.4025667,16.8803667" id="Fill-92" fill="#8A60E2"/><path d="M35.4234647,112.092113 C35.3375824,112.092113 35.2645824,90.5233133 35.2574255,63.9249467 C35.2517,37.3165467 35.3161118,15.75348 35.4019941,15.75348 C35.4878765,15.75348 35.5637392,37.3165467 35.5694647,63.9249467 C35.5737588,90.5233133 35.5107784,112.092113 35.4234647,112.092113" id="Fill-94" fill="#503890"/><path d="M54.2452847,47.48576 C54.2523118,47.50726 53.9631745,47.61476 53.4364294,47.7896267 C52.8538608,47.9874267 52.1052529,48.2396933 51.2077824,48.5421267 C49.3269588,49.18426 46.7476255,50.11306 43.944998,51.2625933 C41.170998,52.4536933 38.554449,53.4226267 37.0643902,54.71406 C36.3215078,55.3518933 35.8935275,56.04276 35.6816843,56.54586 C35.4684098,57.0518267 35.4297627,57.36286 35.4025667,57.3572046 C35.3911157,57.35426 35.3954098,57.27686 35.4111549,57.13066 C35.4354882,56.98446 35.4741353,56.7680267 35.5700373,56.5014267 C35.7518216,55.96966 36.1669196,55.2314933 36.9198216,54.5492267 C37.6684294,53.8655267 38.7090373,53.2506267 39.902802,52.69306 C41.097998,52.13406 42.4220176,51.5521267 43.8276255,50.9744933 C46.6374098,49.82066 49.2382137,48.92196 51.1390765,48.3342933 C52.0880765,48.0375933 52.8638804,47.8182933 53.4006451,47.6735267 C53.9388412,47.53306 54.2394294,47.46426 54.2452847,47.48576" id="Fill-96" fill="#503890"/><path d="M60.4152294,32.31106 C60.4223863,32.31966 60.3436608,32.40136 60.1890725,32.5532933 C60.0044255,32.7252933 59.7768373,32.9402933 59.4962882,33.2040267 C58.8550333,33.7873933 57.9818961,34.58146 56.9169549,35.5503933 C54.6897392,37.5369933 51.6681118,40.2302267 48.330151,43.2086933 C44.9778765,46.19576 42.0793471,49.05096 40.0725627,51.20096 C39.0677392,52.2745267 38.2747588,53.1631933 37.7351314,53.7838267 C37.4832098,54.07336 37.2770922,54.3084267 37.1124843,54.4976267 C36.9664843,54.6595933 36.8877588,54.73986 36.8791706,54.735724 C36.8705824,54.7283933 36.9335627,54.63236 37.0638176,54.4574933 C37.1926412,54.28406 37.3830137,54.02606 37.6420922,53.7064267 C38.1545235,53.0599933 38.9231706,52.14696 39.9108176,51.05046 C41.883249,48.85746 44.7631706,45.96786 48.122602,42.9736267 C51.4863275,39.9937267 54.546602,37.31626 56.7709549,35.38556 C57.8630922,34.4467267 58.7591314,33.67846 59.4175627,33.1122933 C59.7124255,32.8686267 59.9528961,32.6665267 60.1475627,32.5074267 C60.3164647,32.3698267 60.4080725,32.30246 60.4152294,32.31106" id="Fill-98" fill="#503890"/><path d="M44.7106392,46.2454967 C44.6218941,46.2067967 45.3232667,44.58713 46.0203451,42.54033 C46.7245804,40.4920967 47.0566588,38.7634967 47.1454039,38.7792633 C47.2269922,38.7878633 47.0280314,40.5651967 46.3152078,42.63923 C45.9645216,43.67553 45.5766196,44.5856967 45.2731686,45.23213 C44.9682863,45.87713 44.7478549,46.2626967 44.7106392,46.2454967" id="Fill-100" fill="#503890"/><path d="M35.4430745,59.2994367 C35.425898,59.3123367 35.2426824,59.0973367 34.9277804,58.69887 C34.5770941,58.2502367 34.1333686,57.67977 33.6037608,57.00037 C32.4915843,55.5613033 30.9542902,53.5761367 29.232349,51.40177 C27.5089765,49.2288367 25.9273098,47.27807 24.779349,45.86767 C24.2382902,45.19687 23.7845451,44.6364367 23.426702,44.1921033 C23.1118,43.7936367 22.9443294,43.5657367 22.9600745,43.5514033 C22.977251,43.53707 23.1747804,43.73917 23.5197412,44.1118367 C23.8632706,44.48737 24.3528,45.03777 24.948251,45.72577 C26.1391529,47.10177 27.7508784,49.0310367 29.4771137,51.2068367 C31.2004863,53.38407 32.7120157,55.3936033 33.7798196,56.8685033 C34.3137216,57.6038033 34.7388392,58.2058033 35.0251137,58.6272033 C35.3099569,59.0486033 35.4616824,59.2865367 35.4430745,59.2994367" id="Fill-102" fill="#503890"/><path d="M31.3167137,53.9945267 C31.2666157,54.0489933 30.1644588,52.7417933 29.5876157,50.75376 C29.162498,49.3533933 29.1424588,48.0719933 29.196851,47.48576 L29.3328314,47.4972267 C29.2712824,47.74806 29.2269098,47.8784933 29.2011451,47.8741933 C29.1782431,47.8713267 29.1768118,47.73086 29.196851,47.4742933 L29.3342627,47.48576 C29.3843608,48.06626 29.4731059,49.30466 29.8867725,50.6648933 C30.4435765,52.5912933 31.4011647,53.9414933 31.3167137,53.9945267" id="Fill-104" fill="#503890"/><path d="M25.9881431,47.2828 C25.9494961,47.3258 25.5945157,46.8800333 24.7814961,46.5819 C23.9756333,46.2694333 22.7618294,46.2006333 21.4292216,46.3138667 C20.0980451,46.4127667 18.9071431,46.6507 18.0554765,46.8599667 C17.2023784,47.0721 16.6827902,47.2369333 16.6656137,47.1939333 C16.6527314,47.1566667 17.1479863,46.9158667 17.9967902,46.6478333 C18.8427314,46.3798 20.0508098,46.1031667 21.4063196,46.0028333 C22.7532412,45.8867333 24.0314569,45.9913667 24.8645157,46.3769333 C25.7090255,46.7524667 26.0167706,47.2756333 25.9881431,47.2828" id="Fill-106" fill="#233239"/><path d="M24.7259588,45.6576867 C24.7016255,45.7049867 24.0231549,45.37532 22.8766255,44.9825867 C21.7315275,44.58842 20.1026255,44.17562 18.2618804,44.0308533 C16.4211353,43.8946867 14.7464294,44.05522 13.5569588,44.27022 C12.3646255,44.48522 11.6417824,44.70882 11.6274686,44.65722 C11.6203118,44.63572 11.7949392,44.56262 12.116998,44.4479533 C12.4376255,44.3275533 12.9157039,44.1913867 13.5140176,44.05522 C14.7077824,43.78002 16.4111157,43.5807867 18.2862137,43.71982 C20.1598804,43.86602 21.8131157,44.32182 22.9524882,44.7761867 C23.5221745,44.9997867 23.9744882,45.2090533 24.2736451,45.37532 C24.5742333,45.53872 24.7359784,45.63762 24.7259588,45.6576867" id="Fill-108" fill="#233239"/><path d="M35.4025667,38.7792633 C35.3181157,38.8007633 34.7155078,36.6994967 34.0542137,34.0879633 C33.3929196,31.4749967 32.9234294,29.3407633 33.006449,29.3192633 C33.0909,29.2991967 33.6935078,31.39903 34.3562333,34.0119967 C35.0160961,36.6220967 35.4855863,38.7577633 35.4025667,38.7792633" id="Fill-110" fill="#503890"/><path d="M35.4877333,38.7792633 C35.3961255,38.8093633 35.0067922,37.40613 33.9933804,35.96993 C33.0071647,34.5050633 31.7475569,33.7697633 31.7933608,33.6966633 C31.8105373,33.6636967 32.1569294,33.7926967 32.6421647,34.1352633 C33.1288314,34.47353 33.7285765,35.0482967 34.2481647,35.7907633 C35.3002235,37.2842967 35.5635961,38.77353 35.4877333,38.7792633" id="Fill-112" fill="#503890"/><path d="M35.4234647,100.594656 C35.3905431,100.59893 35.3275627,100.075763 35.0842294,99.1598633 C34.8451902,98.2439633 34.3914451,96.9453633 33.6457,95.42603 C32.1570725,92.38163 29.4489157,88.52023 26.0093275,84.6530967 C24.3031314,82.70233 22.6498961,80.86193 21.2457196,79.1003633 C19.8386804,77.34023 18.6835627,75.66323 17.8404843,74.1811633 C16.9931118,72.6990967 16.4420333,71.42773 16.1214059,70.5304633 C15.9625235,70.08183 15.8465824,69.7306633 15.7821706,69.4869967 C15.7134647,69.2461967 15.6834059,69.1171967 15.6948569,69.1142215 C15.7220529,69.10573 15.8795039,69.60883 16.2344843,70.4874633 C16.5880333,71.3660967 17.1648765,72.61453 18.0308569,74.0693633 C18.8911118,75.5284967 20.0576804,77.1796967 21.4690137,78.9197633 C22.8774843,80.66413 24.5350137,82.4930633 26.2426412,84.4466967 C29.692249,88.3238633 32.3946804,92.2339967 33.8432294,95.3299967 C34.571798,96.8736967 34.9954843,98.1980967 35.201602,99.1311967 C35.301798,99.5984633 35.3690725,99.96253 35.3934059,100.21193 C35.4234647,100.46133 35.4349157,100.593197 35.4234647,100.594656" id="Fill-114" fill="#503890"/><path d="M52.4321784,81.3565733 C52.442198,81.38094 52.1158451,81.5457733 51.5404333,81.85824 C50.9693157,82.1793067 50.1577275,82.67524 49.2287667,83.38904 C48.2983745,84.1014067 47.259198,85.03594 46.1928255,86.16254 C45.1264529,87.28914 44.0285902,88.5992067 42.9078255,90.0010067 C40.6677275,92.8160733 38.572198,95.3057733 37.3168843,97.2938067 C36.6813549,98.2813733 36.2175902,99.1127067 35.9141392,99.6960733 C35.6078255,100.276573 35.4475118,100.604807 35.4231784,100.594773 C35.4131588,100.590473 35.4432176,100.501607 35.506198,100.341073 C35.5734725,100.18054 35.6622176,99.93974 35.8067863,99.6416067 C36.0773157,99.0396067 36.5138843,98.18534 37.1322373,97.1762733 C38.3503353,95.14094 40.4286882,92.6154067 42.6659235,89.8075067 C43.7881196,88.3999733 44.8988647,87.0884733 45.9852765,85.9633067 C47.0731196,84.8395733 48.1394922,83.90934 49.0970804,83.21274 C50.0532373,82.5147067 50.8920216,82.0417067 51.4846098,81.75074 C51.7794725,81.6031067 52.0213745,81.50994 52.1802569,81.4425733 C52.342002,81.37664 52.4278843,81.34654 52.4321784,81.3565733" id="Fill-116" fill="#503890"/><path d="M52.7649915,87.5980233 C52.7692667,87.6424567 52.0449922,87.7313233 50.8812863,87.87179 C49.7204431,88.02229 48.1044235,88.2172233 46.4139725,88.75329 C44.7263843,89.3022567 43.3236392,90.1407567 42.4118549,90.8545567 C41.490051,91.56979 41.0534824,92.1603233 41.0119725,92.12449 C40.9962275,92.1144567 41.0878353,91.9539233 41.2896588,91.69019 C41.4929137,91.4264567 41.8221294,91.0738567 42.2730118,90.68399 C43.1704824,89.9085567 44.5861098,89.0213233 46.3166392,88.45659 C48.0500314,87.9076233 49.6889529,87.74709 50.8583843,87.65249 C52.0335412,87.5679233 52.7621098,87.55789 52.7649915,87.5980233" id="Fill-118" fill="#503890"/><path d="M41.5613333,91.4389267 C41.464,91.38446 42.3113725,90.08586 42.9712353,88.3386267 C43.5895882,86.5756267 43.7341569,85.02906 43.8443725,85.0476933 C43.884451,85.0534267 43.8830196,85.4389933 43.8128824,86.0596267 C43.738451,86.6788267 43.5910196,87.5388267 43.2632353,88.4446933 C42.9340196,89.3491267 42.5031765,90.1044933 42.171098,90.63196 C41.8347255,91.1579933 41.5956863,91.46186 41.5613333,91.4389267" id="Fill-120" fill="#503890"/><path d="M57.94116,64.6030567 C57.9439647,64.61309 57.8409059,64.6675567 57.6390824,64.7621567 C57.4057686,64.8696567 57.1123373,65.0029567 56.7530627,65.1663567 C56.3651608,65.3326233 55.8942392,65.5433233 55.3646314,65.8242567 C54.8321608,66.0994567 54.2123765,66.3818233 53.5639647,66.77169 C53.2361804,66.9594567 52.8940824,67.1529567 52.5376706,67.35649 C52.1812588,67.5614567 51.8277098,67.8051233 51.4526902,68.04019 C50.6954941,68.5017233 49.9354353,69.06789 49.1252784,69.6469567 C47.5393176,70.8509567 45.8732,72.2771233 44.2672,73.9240233 C42.6783765,75.58669 41.3114157,77.3038233 40.1634549,78.93209 C39.6138078,79.7634233 39.072749,80.5417233 38.6404745,81.3171567 C38.4171804,81.70129 38.1867294,82.06249 37.9934941,82.4251233 C37.8045529,82.78919 37.6213373,83.1389233 37.4452784,83.4743233 C37.0802784,84.13509 36.8183373,84.7657567 36.5606902,85.3075567 C36.3001804,85.8479233 36.1055137,86.3252233 35.9537882,86.7208233 C35.8020627,87.08489 35.6789647,87.3830233 35.5802,87.6209567 C35.4914549,87.82449 35.4413569,87.9305567 35.4299059,87.9263824 C35.4213176,87.9248233 35.4528078,87.8101567 35.5215137,87.5994567 C35.6059647,87.35579 35.7118863,87.05049 35.8407098,86.67639 C35.9752588,86.2736233 36.1541804,85.7877233 36.4018078,85.2373233 C36.6437098,84.6869233 36.8927686,84.04479 37.2491804,83.3754233 C37.4195137,83.03429 37.5984353,82.6788233 37.7830824,82.3104567 C37.9720235,81.94209 38.1996118,81.5751567 38.4171804,81.18529 C38.8437294,80.3998233 39.3790627,79.61149 39.9272784,78.7701233 C41.0709451,77.1203567 42.4422,75.3831567 44.0439059,73.70759 C45.6613569,72.04779 47.3489451,70.61589 48.9549451,69.4147567 C49.7751216,68.8385567 50.5452,68.27669 51.3138471,67.8223233 C51.6960235,67.5901233 52.0538667,67.3507567 52.4160039,67.1486567 C52.7781412,66.9508567 53.1259647,66.7602233 53.4580431,66.57819 C54.1164745,66.1983567 54.7477098,65.9274567 55.2887686,65.66659 C55.8283961,65.4014233 56.3093373,65.2050567 56.7058275,65.0545567 C57.0751216,64.9126567 57.3742784,64.79799 57.614749,64.7048233 C57.8251608,64.6288567 57.9368078,64.5930233 57.94116,64.6030567" id="Fill-122" fill="#503890"/><path d="M44.4800451,73.6342033 C44.4514176,73.6299033 44.6017118,73.1067367 45.2200647,72.5291033 C45.8212412,71.95577 46.9219667,71.42257 48.2030451,71.3853033 C49.478398,71.3509033 50.584849,71.7078033 51.3406137,71.9973367 C52.0992412,72.2969033 52.5415353,72.5391367 52.5272216,72.5764033 C52.5086137,72.6194033 52.0348294,72.4488367 51.2676137,72.2066033 C50.5032608,71.9715367 49.4211431,71.66337 48.2116333,71.6949033 C47.007849,71.7336033 45.9672412,72.1980033 45.363202,72.6982367 C44.7477118,73.19417 44.5287118,73.6643033 44.4800451,73.6342033" id="Fill-124" fill="#643ABC"/><path d="M42.4671059,75.7128233 C42.3812235,75.6655233 43.1412824,74.55039 43.3144784,72.9536567 C43.5120078,71.35979 43.0310667,70.09989 43.1241059,70.0726567 C43.1584588,70.0597567 43.3287922,70.35359 43.4747922,70.8767567 C43.6222235,71.39849 43.7181255,72.15959 43.6236549,72.9909233 C43.5248902,73.81939 43.2557922,74.53749 42.9924196,75.0119233 C42.7304784,75.48779 42.4971647,75.7343233 42.4671059,75.7128233" id="Fill-126" fill="#233239"/><path d="M20.5477824,103.683893 C21.0115471,111.926993 23.4935471,120.31056 27.3081549,128.784427 L43.8977627,128.784427 C47.5363118,120.393693 49.8465471,112.023027 50.2559196,103.683893 L20.5477824,103.683893 Z" id="Fill-128" fill="#C664E9"/><path d="M29.465949,115.871383 C29.4401843,115.561783 29.0436941,115.150417 29.3170863,114.878083 C29.6362824,114.55845 30.0614,114.942583 30.4077922,115.075883 C31.7819098,115.609083 31.7604392,115.619117 32.2471059,114.241683 C32.4031255,113.80595 32.3415765,113.080683 32.812498,113.009017 C33.2920078,112.93735 33.4523216,113.636817 33.6756157,114.032417 C34.0406157,114.67455 34.3655373,114.698917 34.8879882,114.200117 C35.2401059,113.864717 35.6466157,113.201083 36.0645765,113.398883 C36.508302,113.609583 36.3222235,114.362083 36.3608706,114.883817 C36.4310078,115.836983 36.4381647,115.851317 37.3413608,115.634883 C37.4444196,115.609083 37.5474784,115.571817 37.6534,115.56035 C38.1100078,115.511617 38.6625176,115.017117 38.9802824,115.428483 C39.247949,115.77535 38.8342824,116.327183 38.6796941,116.771517 C38.2860667,117.900983 38.2703216,117.89525 39.3810667,118.36825 C40.7795176,118.96595 40.7795176,118.96595 39.6659098,119.943483 C38.4320667,121.027083 38.4320667,121.027083 39.3710471,122.40165 C39.416851,122.467583 39.4798314,122.527783 39.5055961,122.59945 C39.5929098,122.864617 39.9765176,123.088217 39.7689686,123.370583 C39.5900471,123.61425 39.2737137,123.36055 39.017498,123.340483 C38.725498,123.318983 38.4349294,123.275983 38.1429294,123.237283 C37.0880078,123.09395 37.0722627,123.11975 37.311302,124.206217 C37.3957529,124.59035 37.676302,125.09775 37.4014784,125.345717 C37.0779882,125.636683 36.6915176,125.17515 36.3522824,125.01605 C35.3431647,124.544483 35.3474588,124.527283 34.8636549,125.513417 C34.6861647,125.873183 34.5344392,126.242983 34.3555176,126.601317 C34.1522627,127.00695 33.9318314,127.057117 33.7071059,126.609917 C33.430851,126.06095 33.1345569,125.52345 32.8740471,124.970183 C32.7037137,124.604683 32.5348118,124.550217 32.2213412,124.829717 C31.8835373,125.130717 31.5013608,125.38155 31.1478118,125.662483 C30.8128706,125.929083 30.6725961,125.808683 30.6668706,125.431717 C30.6611451,125.031817 30.6482627,124.627617 30.6840471,124.230583 C30.7269882,123.73035 30.5208706,123.53685 30.0356353,123.60565 C29.6405765,123.662983 29.2426549,123.703117 28.8475961,123.77335 C28.4267725,123.84645 28.2163608,123.789117 28.4095961,123.288883 C28.6142824,122.752817 29.2326353,122.19525 28.9664,121.71365 C28.7531255,121.328083 28.0045176,121.23635 27.4920863,121.018483 C27.1285176,120.863683 27.1084784,120.680217 27.4391255,120.46665 C27.7984,120.23445 28.1462235,119.983617 28.5212431,119.780083 C28.9706941,119.534983 29.027949,119.287017 28.6257333,118.941583 C28.2822039,118.646317 27.9572824,118.328117 27.6323608,118.01135 C27.5235765,117.90385 27.3417922,117.806383 27.3904588,117.627217 C27.4505765,117.40075 27.6838902,117.43945 27.8585176,117.407917 C28.2263804,117.34485 28.5956745,117.260283 28.9649686,117.244517 C29.7092824,117.212983 29.9139686,116.89765 29.573302,116.229717 C29.5260667,116.13655 29.5103216,116.026183 29.465949,115.871383" id="Fill-130" fill="#FF67FF"/><path d="M30.7506059,108.736967 C30.6733118,108.761333 30.597449,108.7814 30.5201549,108.805767 C29.3092137,109.179867 29.2734294,109.300267 30.0764294,110.2477 C30.3011549,110.51 30.5172922,110.783767 30.7148216,111.067567 C30.8665471,111.286867 31.0282922,111.569233 30.743449,111.772767 C30.4829392,111.960533 30.305449,111.698233 30.1522922,111.521933 C29.8373902,111.1593 29.5410961,110.7809 29.2261941,110.4197 C28.906998,110.057067 28.6450569,110.098633 28.4675667,110.558733 C28.2757627,111.057533 28.0896843,111.557767 27.7661941,111.992067 C27.6645667,112.1311 27.5643706,112.254367 27.3782922,112.1698 C27.2093902,112.090967 27.1449784,111.931867 27.200802,111.767033 C27.3496647,111.311233 27.531449,110.8669 27.6874686,110.412533 C27.9050373,109.779 27.7347039,109.574033 27.0619588,109.661467 C26.6912333,109.7102 26.324802,109.7833 25.9540765,109.8392 C25.7923314,109.862133 25.6119784,109.859267 25.5676059,109.660033 C25.5246647,109.470833 25.6735275,109.354733 25.8238216,109.304567 C26.3047627,109.139733 26.789998,108.997833 27.273802,108.847333 C27.6989196,108.715467 27.750449,108.4589 27.4970961,108.1278 C27.2351549,107.790967 26.9488804,107.472767 26.6812137,107.140233 C26.4994294,106.913767 26.2217431,106.632833 26.5194686,106.380567 C26.8400961,106.109667 27.0347627,106.513867 27.2251353,106.6916 C27.4985275,106.9453 27.7232529,107.249167 27.9608608,107.537267 C28.3430373,108.000233 28.6665275,108.1063 28.9027039,107.414 C29.0558608,106.961067 29.2276255,106.511 29.4022529,106.066667 C29.5081745,105.798633 29.5954882,105.428833 29.9905471,105.5779 C30.3440961,105.7112 30.2897039,106.0294 30.1680373,106.328967 C30.0077235,106.724567 29.8359588,107.1173 29.7071353,107.522933 C29.5496843,108.026033 29.7515078,108.238167 30.2710961,108.116333 C30.6346647,108.031767 30.9910765,107.915667 31.3575078,107.8526 C31.5550373,107.8182 31.8212725,107.776633 31.8813902,108.069033 C31.9329196,108.3299 31.7339588,108.4546 31.5235471,108.5277 C31.2716255,108.615133 31.0125471,108.6825 30.7563314,108.758467 C30.7549,108.7513 30.7520373,108.744133 30.7506059,108.736967" id="Fill-132" fill="#FED21C"/><path d="M46.5221843,92.87785 C46.5221843,94.31405 45.3599098,95.4764833 43.9271059,95.4764833 C42.494302,95.4764833 41.3320275,94.31405 41.3320275,92.87785 C41.3320275,91.4430833 42.494302,90.28065 43.9271059,90.28065 C45.3599098,90.28065 46.5221843,91.4430833 46.5221843,92.87785" id="Fill-134" fill="#FF67FF"/><path d="M27.3217529,49.45516 C27.3217529,50.89136 26.1594784,52.0537933 24.7266745,52.0537933 C23.2938706,52.0537933 22.1315961,50.89136 22.1315961,49.45516 C22.1315961,48.0203933 23.2938706,46.85796 24.7266745,46.85796 C26.1594784,46.85796 27.3217529,48.0203933 27.3217529,49.45516" id="Fill-136" fill="#FF67FF"/><path d="M50.8666863,45.92357 C50.8666863,47.2551367 49.7888627,48.3344367 48.4591176,48.3344367 C47.1293725,48.3344367 46.051549,47.2551367 46.051549,45.92357 C46.051549,44.59057 47.1293725,43.51127 48.4591176,43.51127 C49.7888627,43.51127 50.8666863,44.59057 50.8666863,45.92357" id="Fill-138" fill="#FF67FF"/><path d="M50.8666863,67.1618433 C50.8666863,68.49341 49.7888627,69.57271 48.4591176,69.57271 C47.1293725,69.57271 46.051549,68.49341 46.051549,67.1618433 C46.051549,65.8302767 47.1293725,64.7509767 48.4591176,64.7509767 C49.7888627,64.7509767 50.8666863,65.8302767 50.8666863,67.1618433" id="Fill-140" fill="#FF67FF"/><path d="M24.1836118,83.24628 C24.1836118,84.26108 23.3634353,85.08238 22.3500235,85.08238 C21.3366118,85.08238 20.5150039,84.26108 20.5150039,83.24628 C20.5150039,82.23148 21.3366118,81.4087467 22.3500235,81.4087467 C23.3634353,81.4087467 24.1836118,82.23148 24.1836118,83.24628" id="Fill-142" fill="#FF67FF"/><path d="M41.8171196,83.24628 C41.8171196,84.26108 40.9955118,85.08238 39.9835314,85.08238 C38.9701196,85.08238 38.1485118,84.26108 38.1485118,83.24628 C38.1485118,82.23148 38.9701196,81.4087467 39.9835314,81.4087467 C40.9955118,81.4087467 41.8171196,82.23148 41.8171196,83.24628" id="Fill-144" fill="#FF67FF"/></g></g></svg>